<?xml version="1.0" standalone="no"?>
<!DOCTYPE svg PUBLIC "-//W3C//DTD SVG 20010904//EN"
 "http://www.w3.org/TR/2001/REC-SVG-20010904/DTD/svg10.dtd">
<svg version="1.0" xmlns="http://www.w3.org/2000/svg"
 width="2000.000000pt" height="214.000000pt" viewBox="0 0 2000.000000 214.000000"
 preserveAspectRatio="xMidYMid meet">

<g transform="translate(0.000000,214.000000) scale(0.100000,-0.100000)"
fill="#000000" stroke="none">
<path d="M323 2125 c-18 -8 -42 -29 -53 -47 -20 -32 -20 -49 -20 -805 l0 -773
1280 0 1280 0 0 773 c0 757 0 773 -20 805 -40 65 29 62 -1262 62 -985 -1
-1178 -3 -1205 -15z m1436 -261 c12 -15 21 -34 21 -43 0 -9 -83 -248 -185
-531 -187 -522 -199 -550 -247 -550 -25 0 -68 44 -68 69 0 25 356 1027 376
1059 21 32 76 30 103 -4z m-611 -170 c25 -17 30 -70 10 -96 -7 -8 -115 -73
-240 -143 -126 -70 -228 -131 -228 -135 0 -5 99 -64 221 -132 121 -67 231
-133 245 -145 45 -41 18 -117 -42 -116 -44 0 -624 330 -644 366 -29 52 -10 68
310 249 162 92 306 167 320 167 14 1 36 -6 48 -15z m1119 -145 c284 -158 333
-192 333 -229 0 -10 -10 -30 -22 -44 -35 -38 -595 -347 -631 -348 -50 -2 -82
55 -58 101 6 10 118 78 250 152 132 74 240 136 240 139 0 3 -97 59 -216 125
-119 66 -229 131 -244 143 -54 44 -29 122 38 122 13 0 152 -72 310 -161z"/>
<path d="M16880 1911 c-272 -58 -491 -226 -606 -466 -58 -120 -75 -187 -81
-325 -17 -362 163 -665 488 -819 136 -66 189 -76 384 -76 182 0 218 6 355 62
313 127 520 441 520 789 0 420 -264 752 -664 835 -117 24 -281 24 -396 0z
m347 -371 c317 -111 415 -559 179 -817 -85 -94 -199 -143 -330 -143 -220 0
-392 124 -457 329 -29 91 -30 241 -1 328 82 255 357 392 609 303z"/>
<path d="M3710 1911 l-85 -6 -3 -833 -2 -832 190 0 190 0 0 258 0 259 93 6
c185 13 327 67 427 163 118 113 173 241 173 409 1 173 -41 283 -150 392 -68
69 -181 130 -291 157 -124 31 -327 41 -542 27z m468 -356 c46 -19 97 -71 118
-121 17 -40 18 -138 3 -185 -31 -91 -116 -148 -231 -157 l-68 -5 0 248 0 248
68 -6 c37 -3 87 -13 110 -22z"/>
<path d="M6860 1911 l-125 -6 -3 -833 -2 -832 185 0 185 0 0 320 0 320 23 0
c18 0 51 -47 190 -273 92 -149 181 -293 197 -319 l30 -48 220 0 c121 0 220 3
220 6 0 3 -34 56 -77 117 -42 62 -149 220 -239 353 l-163 241 59 41 c109 78
180 194 201 334 34 214 -65 424 -241 513 -111 56 -357 81 -660 66z m421 -348
c60 -31 84 -65 98 -136 27 -149 -70 -267 -221 -267 l-58 0 0 208 c0 115 3 212
7 215 3 4 32 7 63 7 42 0 70 -7 111 -27z"/>
<path d="M8210 1911 l-125 -6 -3 -833 -2 -832 185 0 185 0 0 320 0 320 23 0
c18 -1 49 -45 177 -253 85 -138 174 -282 198 -319 l43 -68 219 0 c121 0 220 3
220 6 0 3 -41 65 -91 137 -50 73 -157 231 -239 353 l-148 221 58 41 c162 114
237 316 196 524 -27 141 -109 255 -226 317 -116 62 -355 88 -670 72z m421
-348 c60 -31 84 -65 98 -136 27 -149 -70 -267 -221 -267 l-58 0 0 208 c0 115
3 212 7 215 3 4 32 7 63 7 42 0 70 -7 111 -27z"/>
<path d="M11279 1916 c-2 -2 -26 -5 -54 -7 -27 -1 -56 -4 -62 -7 -10 -3 -13
-178 -13 -827 l0 -822 61 -7 c34 -3 167 -6 295 -6 189 0 252 4 333 19 196 38
335 114 470 257 89 94 146 193 187 329 26 83 28 103 28 260 -1 142 -4 183 -22
248 -77 280 -264 456 -565 534 -96 24 -119 26 -378 30 -151 2 -277 1 -280 -1z
m511 -368 c75 -14 132 -42 191 -95 64 -58 94 -111 119 -208 44 -171 11 -354
-88 -483 -84 -110 -270 -185 -411 -166 l-51 7 0 478 0 478 43 3 c53 5 127 -1
197 -14z"/>
<path d="M4910 1075 l0 -835 200 0 200 0 0 835 0 835 -200 0 -200 0 0 -835z"/>
<path d="M5597 1903 c-3 -5 -4 -379 -3 -833 l1 -825 453 -3 452 -2 0 165 0
165 -252 2 -253 3 -3 173 -2 172 220 0 220 0 0 165 0 165 -220 0 -220 0 0 165
0 165 245 0 245 0 0 165 0 165 -439 0 c-242 0 -442 -3 -444 -7z"/>
<path d="M9430 1075 l0 -835 450 0 450 0 0 165 0 165 -252 2 -253 3 -3 173 -2
172 220 0 220 0 0 165 0 165 -220 0 -220 0 2 163 3 162 248 3 247 2 0 165 0
165 -445 0 -445 0 0 -835z"/>
<path d="M12702 1323 c4 -648 3 -635 70 -773 47 -98 159 -206 268 -258 126
-61 199 -76 370 -76 122 -1 158 3 225 22 123 36 209 86 296 172 170 168 188
272 189 1078 l0 422 -200 0 -200 0 0 -521 c0 -439 -2 -531 -16 -590 -20 -87
-61 -144 -134 -184 -51 -28 -62 -30 -155 -30 -84 1 -108 5 -147 24 -94 46
-140 115 -158 237 -5 38 -10 290 -10 567 l0 497 -201 0 -200 0 3 -587z"/>
<path d="M14850 1745 l0 -165 213 -2 212 -3 3 -667 2 -668 195 0 195 0 2 668
3 667 213 3 212 2 0 165 0 165 -625 0 -625 0 0 -165z"/>
<path d="M18140 1075 l0 -835 200 0 200 0 0 835 0 835 -200 0 -200 0 0 -835z"/>
<path d="M18710 1745 l0 -165 215 0 215 0 0 -670 0 -670 200 0 200 0 0 670 0
670 215 0 215 0 0 165 0 165 -630 0 -630 0 0 -165z"/>
<path d="M33 176 c6 -89 23 -117 85 -148 l47 -23 1365 0 1366 0 48 25 c63 33
86 74 86 157 l0 63 -1501 0 -1502 0 6 -74z"/>
</g>
</svg>
