<svg id="Layer_1" data-name="Layer 1" xmlns="http://www.w3.org/2000/svg" viewBox="0 0 962.119 964.861">
  <g>
    <g>
      <rect x="528.194" y="637.627" width="269.558" height="162.035" rx="17.318" fill="#fff"></rect>
      <rect x="528.194" y="637.627" width="269.558" height="162.035" rx="17.318" fill="#006D77" opacity="0.1"></rect>
    </g>
    <g>
      <rect id="gra19_b" x="700.407" y="724.509" width="25.387" height="50.692" rx="2.293" fill="#fff"></rect>
      <rect id="gra19_b-2" data-name="gra19_b" x="750.534" y="685.085" width="25.387" height="90.116" rx="2.293" fill="#fff"></rect>
      <rect id="gra19_b-3" data-name="gra19_b" x="550.024" y="724.509" width="25.387" height="50.692" rx="2.293" fill="#fff"></rect>
      <rect id="gra19_b-4" data-name="gra19_b" x="600.152" y="667.159" width="25.387" height="108.042" rx="2.293" fill="#fff"></rect>
      <rect id="gra19_b-5" data-name="gra19_b" x="650.279" y="713.147" width="25.387" height="62.054" rx="2.293" fill="#fff"></rect>
    </g>
  </g>
  <g>
    <g>
      <rect x="37.493" y="538.525" width="342.119" height="205.652" rx="21.98" fill="#fff"></rect>
      <rect x="37.493" y="538.525" width="342.119" height="205.652" rx="21.98" fill="#006D77" opacity="0.1"></rect>
    </g>
    <g>
      <rect id="gra19_b-6" data-name="gra19_b" x="256.063" y="648.795" width="32.221" height="64.337" rx="2.91" fill="#fff"></rect>
      <rect id="gra19_b-7" data-name="gra19_b" x="319.684" y="598.759" width="32.221" height="114.374" rx="2.91" fill="#fff"></rect>
      <rect id="gra19_b-8" data-name="gra19_b" x="65.199" y="648.795" width="32.221" height="64.337" rx="2.91" fill="#fff"></rect>
      <rect id="gra19_b-9" data-name="gra19_b" x="128.82" y="576.008" width="32.221" height="137.124" rx="2.91" fill="#fff"></rect>
      <rect id="gra19_b-10" data-name="gra19_b" x="192.442" y="634.374" width="32.221" height="78.758" rx="2.91" fill="#fff"></rect>
    </g>
  </g>
  <g>
    <g>
      <rect x="555.245" width="392.921" height="236.191" rx="25.244" fill="#fff"></rect>
      <rect x="555.245" width="392.921" height="236.191" rx="25.244" fill="#006D77" opacity="0.1"></rect>
    </g>
    <g>
      <rect id="gra19_b-11" data-name="gra19_b" x="806.272" y="126.645" width="37.005" height="73.891" rx="3.342" fill="#fff"></rect>
      <rect id="gra19_b-12" data-name="gra19_b" x="879.34" y="69.178" width="37.005" height="131.358" rx="3.342" fill="#fff"></rect>
      <rect id="gra19_b-13" data-name="gra19_b" x="587.066" y="126.645" width="37.005" height="73.891" rx="3.342" fill="#fff"></rect>
      <rect id="gra19_b-14" data-name="gra19_b" x="660.135" y="43.049" width="37.005" height="157.487" rx="3.342" fill="#fff"></rect>
      <rect id="gra19_b-15" data-name="gra19_b" x="733.203" y="110.082" width="37.005" height="90.453" rx="3.342" fill="#fff"></rect>
    </g>
  </g>
  <g>
    <g>
      <rect y="194.948" width="191.676" height="115.219" rx="12.314" fill="#fff"></rect>
      <rect y="194.948" width="191.676" height="115.219" rx="12.314" fill="#006D77" opacity="0.3"></rect>
    </g>
    <g>
      <rect id="gra19_b-16" data-name="gra19_b" x="122.457" y="256.728" width="18.052" height="36.046" rx="1.63" fill="#fff"></rect>
      <rect id="gra19_b-17" data-name="gra19_b" x="158.101" y="228.694" width="18.052" height="64.079" rx="1.63" fill="#fff"></rect>
      <rect id="gra19_b-18" data-name="gra19_b" x="15.523" y="256.728" width="18.052" height="36.046" rx="1.63" fill="#fff"></rect>
      <rect id="gra19_b-19" data-name="gra19_b" x="51.168" y="215.948" width="18.052" height="76.826" rx="1.63" fill="#fff"></rect>
      <rect id="gra19_b-20" data-name="gra19_b" x="86.812" y="248.648" width="18.052" height="44.125" rx="1.63" fill="#fff"></rect>
    </g>
  </g>
  <g>
    <rect x="129.258" y="49.362" width="734.688" height="553.975" rx="30" transform="translate(993.205 652.699) rotate(-180)" fill="#fff"></rect>
    <path d="M128.258,573.337V79.362a31.035,31.035,0,0,1,31-31H833.946a31.035,31.035,0,0,1,31,31V573.337a31.035,31.035,0,0,1-31,31H159.258A31.035,31.035,0,0,1,128.258,573.337Zm31-522.975a29.034,29.034,0,0,0-29,29V573.337a29.033,29.033,0,0,0,29,29H833.946a29.032,29.032,0,0,0,29-29V79.362a29.033,29.033,0,0,0-29-29Z" fill="#292a2e"></path>
    <path d="M129.259,79.359v30.187H863.943V79.359a30,30,0,0,0-30-30H159.259A30,30,0,0,0,129.259,79.359Z" fill="#292a2e"></path>
    <g>
      <rect x="525.259" y="138.231" width="311.714" height="227.954" rx="12.723" fill="#fff"></rect>
      <rect x="525.259" y="138.231" width="311.714" height="227.954" rx="12.723" fill="#006D77" opacity="0.15"></rect>
      <g>
        <rect id="grp6_b" x="554.388" y="166.676" width="28.903" height="171.064" rx="2.081" fill="#fafafa"></rect>
        <path id="grp6_b-2" data-name="grp6_b" d="M554.388,250.529h28.9a0,0,0,0,1,0,0v85.13a2.081,2.081,0,0,1-2.081,2.081H556.469a2.081,2.081,0,0,1-2.081-2.081v-85.13A0,0,0,0,1,554.388,250.529Z" fill="#006D77" opacity="0.6"></path>
      </g>
      <g>
        <rect id="grp6_b-3" data-name="grp6_b" x="610.526" y="166.676" width="28.903" height="171.064" rx="2.081" fill="#fafafa"></rect>
        <path id="grp6_b-4" data-name="grp6_b" d="M610.526,226.82h28.9a0,0,0,0,1,0,0V335.658a2.081,2.081,0,0,1-2.081,2.081H612.607a2.081,2.081,0,0,1-2.081-2.081V226.82A0,0,0,0,1,610.526,226.82Z" fill="#006D77" opacity="0.6"></path>
      </g>
      <g>
        <rect id="grp6_b-5" data-name="grp6_b" x="778.941" y="166.676" width="28.903" height="171.064" rx="2.081" fill="#fafafa"></rect>
        <path id="grp6_b-6" data-name="grp6_b" d="M778.941,202.9h28.9a0,0,0,0,1,0,0v132.76a2.081,2.081,0,0,1-2.081,2.081H781.023a2.081,2.081,0,0,1-2.081-2.081V202.9A0,0,0,0,1,778.941,202.9Z" fill="#006D77" opacity="0.6"></path>
      </g>
      <g>
        <rect id="grp6_b-7" data-name="grp6_b" x="666.665" y="166.676" width="28.903" height="171.064" rx="2.081" fill="#fafafa"></rect>
        <path id="grp6_b-8" data-name="grp6_b" d="M666.665,288.876h28.9a0,0,0,0,1,0,0v46.783a2.081,2.081,0,0,1-2.081,2.081H668.746a2.081,2.081,0,0,1-2.081-2.081V288.876A0,0,0,0,1,666.665,288.876Z" fill="#006D77" opacity="0.6"></path>
      </g>
      <g>
        <rect id="grp6_b-9" data-name="grp6_b" x="722.803" y="166.676" width="28.903" height="171.064" rx="2.081" fill="#fafafa"></rect>
        <path id="grp6_b-10" data-name="grp6_b" d="M722.8,258.984h28.9a0,0,0,0,1,0,0v76.674a2.081,2.081,0,0,1-2.081,2.081H724.884a2.081,2.081,0,0,1-2.081-2.081V258.984A0,0,0,0,1,722.8,258.984Z" fill="#006D77" opacity="0.6"></path>
      </g>
    </g>
    <g>
      <rect x="521.815" y="388.498" width="315.158" height="187.357" rx="18.213" fill="#006D77" opacity="0.15"></rect>
      <circle id="gra7_p" cx="710.338" cy="428.527" r="6.77" fill="#006D77"></circle>
      <circle id="gra7_p-2" data-name="gra7_p" cx="710.338" cy="463.038" r="6.77" fill="#262626"></circle>
      <circle id="gra7_p-3" data-name="gra7_p" cx="710.338" cy="497.55" r="6.77" fill="#fff"></circle>
      <circle id="gra7_p-4" data-name="gra7_p" cx="710.338" cy="532.061" r="6.77" fill="#006D77" opacity="0.5"></circle>
      <path d="M804.289,428.524h0a3.83,3.83,0,0,1-3.83,3.83H735.385a3.95,3.95,0,0,1-3.921-3.06,3.834,3.834,0,0,1,3.758-4.6h65.237A3.829,3.829,0,0,1,804.289,428.524Z" fill="#fff"></path>
      <path d="M804.289,463.037h0a3.83,3.83,0,0,1-3.83,3.83H735.424a3.972,3.972,0,0,1-4.031-4.026,3.833,3.833,0,0,1,3.829-3.633h65.237A3.829,3.829,0,0,1,804.289,463.037Z" fill="#fff"></path>
      <path d="M804.289,497.55h0a3.83,3.83,0,0,1-3.83,3.83H734.827a3.44,3.44,0,0,1-3.44-3.44v-.779a3.44,3.44,0,0,1,3.44-3.44h65.632A3.829,3.829,0,0,1,804.289,497.55Z" fill="#fff"></path>
      <path d="M804.289,532.063h0a3.83,3.83,0,0,1-3.83,3.83H735.4a3.967,3.967,0,0,1-3.936-3.057,3.833,3.833,0,0,1,3.756-4.6h65.237A3.829,3.829,0,0,1,804.289,532.063Z" fill="#fff"></path>
      <g>
        <path d="M583.312,480.294a39.9,39.9,0,0,0,26.616,37.615L598.984,544.6a68.707,68.707,0,0,1,24.215-133v28.814A39.886,39.886,0,0,0,583.312,480.294Z" fill="#006D77"></path>
        <path d="M691.9,480.294H663.085A39.886,39.886,0,0,0,623.2,440.408V411.594A68.7,68.7,0,0,1,691.9,480.294Z" fill="#262626"></path>
        <path d="M691.9,480.294a68.727,68.727,0,0,1-53.425,66.994l-4.881-28.482a39.9,39.9,0,0,0,29.492-38.512Z" fill="#fff"></path>
        <path d="M638.474,547.288a69.014,69.014,0,0,1-39.49-2.691l10.944-26.688a40.124,40.124,0,0,0,23.665.9Z" fill="#006D77" opacity="0.5"></path>
      </g>
    </g>
    <g>
      <rect x="156.195" y="138.231" width="343.629" height="437.624" rx="18" fill="#006D77" opacity="0.15"></rect>
      <path id="gra14_p" d="M420.981,309.027A100.965,100.965,0,1,1,320.016,208.063V309.027Z" fill="#fafafa"></path>
      <path id="gra14_p-2" data-name="gra14_p" d="M433.36,295.912H332.4V194.948A100.964,100.964,0,0,1,433.36,295.912Z" fill="#006D77" opacity="0.6"></path>
      <circle id="gra7_p-5" data-name="gra7_p" cx="215.322" cy="460.497" r="6.77" fill="#006D77" opacity="0.6"></circle>
      <circle id="gra7_p-6" data-name="gra7_p" cx="215.322" cy="495.009" r="6.77" fill="#fafafa"></circle>
      <path d="M447.272,460.5h0a3.83,3.83,0,0,1-3.83,3.83H240.369a3.951,3.951,0,0,1-3.922-3.061,3.835,3.835,0,0,1,3.759-4.6H443.442A3.83,3.83,0,0,1,447.272,460.5Z" fill="#006D77" opacity="0.6"></path>
      <path d="M447.272,495.008h0a3.83,3.83,0,0,1-3.83,3.83H240.408a3.973,3.973,0,0,1-4.032-4.026,3.835,3.835,0,0,1,3.83-3.634H443.442A3.83,3.83,0,0,1,447.272,495.008Z" fill="#fff"></path>
    </g>
  </g>
  <g>
    <path d="M126.855,857.059a.817.817,0,0,1-.581-.241c-1.159-1.158-3.046-22.407-8.131-85.674-2.081-25.888-4.047-50.34-5.481-65.2-.1-1.061-.514-1.185-.649-1.225-1.963-.592-7.934,4.116-11.267,8.239a.822.822,0,0,1-1.279-1.034c2.2-2.726,9.389-9.872,13.019-8.78a2.687,2.687,0,0,1,1.813,2.642c1.435,14.873,3.4,39.332,5.483,65.226,3.09,38.446,6.59,82,7.741,84.745a.823.823,0,0,1-.668,1.3Z" fill="#494949"></path>
    <ellipse cx="95.95" cy="715.001" rx="31.654" ry="23.344" transform="translate(-426.11 217.119) rotate(-38.715)" fill="#83C5BE"></ellipse>
    <ellipse cx="95.95" cy="715.001" rx="31.654" ry="23.344" transform="translate(-426.11 217.119) rotate(-38.715)" fill="#fff" opacity="0.2"></ellipse>
    <path d="M75.075,737.354a.411.411,0,0,1-.316-.673l38.875-46.88a.411.411,0,0,1,.633.525l-38.875,46.88A.409.409,0,0,1,75.075,737.354Z" fill="#fff"></path>
    <path d="M135.334,847.009a.823.823,0,0,1-.776-1.092l14.6-41.995a7.807,7.807,0,0,1,12.765-3.081l7.72,7.375a.822.822,0,0,1-1.136,1.188l-7.72-7.374a6.162,6.162,0,0,0-10.077,2.432l-14.6,42A.822.822,0,0,1,135.334,847.009Z" fill="#494949"></path>
    <ellipse cx="171.568" cy="806.642" rx="23.344" ry="31.654" transform="translate(-463.596 280.644) rotate(-38.363)" fill="#83C5BE"></ellipse>
    <path d="M120.221,854.381a.823.823,0,0,1-.8-.631l-24.5-102.462a3.905,3.905,0,0,0-6.751-1.647l-7.554,8.729a.822.822,0,1,1-1.243-1.075l7.554-8.73a5.55,5.55,0,0,1,9.593,2.341l24.5,102.462a.821.821,0,0,1-.608.99A.793.793,0,0,1,120.221,854.381Z" fill="#494949"></path>
    <ellipse cx="88.177" cy="777.154" rx="31.654" ry="23.344" transform="translate(-692.637 731.621) rotate(-80.189)" fill="#83C5BE"></ellipse>
    <path d="M126.856,857.059a.868.868,0,0,1-.1-.006.823.823,0,0,1-.716-.916l15.648-127.051a7.239,7.239,0,0,1,12.611-3.907l17.886,20.257a.822.822,0,1,1-1.232,1.089l-17.886-20.257a5.595,5.595,0,0,0-9.747,3.018L127.671,856.337A.822.822,0,0,1,126.856,857.059Z" fill="#494949"></path>
    <ellipse cx="162.829" cy="741.372" rx="23.344" ry="31.654" transform="translate(-564.724 525.009) rotate(-61.051)" fill="#83C5BE"></ellipse>
    <ellipse cx="171.568" cy="806.642" rx="23.344" ry="31.654" transform="translate(-463.596 280.644) rotate(-38.363)" fill="#fff" opacity="0.2"></ellipse>
    <ellipse cx="88.177" cy="777.154" rx="31.654" ry="23.344" transform="translate(-692.637 731.621) rotate(-80.189)" fill="#fff" opacity="0.5"></ellipse>
    <ellipse cx="162.829" cy="741.372" rx="23.344" ry="31.654" transform="translate(-564.724 525.009) rotate(-61.051)" fill="#fff" opacity="0.5"></ellipse>
    <polygon points="146.87 964.861 106.84 964.861 100.207 836.786 153.503 836.786 146.87 964.861" fill="#292a2e"></polygon>
    <polygon points="146.87 964.861 106.84 964.861 100.207 836.786 153.503 836.786 146.87 964.861" fill="#fff" opacity="0.3"></polygon>
    <path d="M191.215,831.873a.408.408,0,0,1-.323-.156L151.6,782.078a.411.411,0,1,1,.644-.511l39.293,49.64a.411.411,0,0,1-.068.577A.406.406,0,0,1,191.215,831.873Z" fill="#fff"></path>
    <path d="M187.915,760.671a.412.412,0,0,1-.242-.079l-50.28-36.714a.411.411,0,1,1,.484-.664l50.281,36.714a.411.411,0,0,1-.243.743Z" fill="#fff"></path>
    <path d="M80.744,807.813a.393.393,0,0,1-.107-.014.411.411,0,0,1-.291-.5l16.006-59.97a.415.415,0,0,1,.5-.291.41.41,0,0,1,.291.5L81.14,807.508A.41.41,0,0,1,80.744,807.813Z" fill="#fff"></path>
  </g>
  <path d="M897.468,964.861H77.049a.7.7,0,0,1,0-1.4H897.468a.7.7,0,0,1,0,1.4Z" fill="#292a2e"></path>
  <g>
    <g>
      <path d="M285.775,919.987S290.29,943.392,312.2,944.7s17.161,18.761,17.161,18.761H245.625V921.62Z" fill="#006D77"></path>
      <path d="M239.946,493.057s6.262-7.035,6.207,8.924c-.207,59.529-4.224,432.943-4.224,432.943l55.026-.462,33.333-443.824Z" fill="#262626"></path>
      <path d="M379.736,919.987s4.515,23.405,26.428,24.709,17.161,18.761,17.161,18.761H339.586V921.62Z" fill="#006D77"></path>
      <path d="M390.379,497.68s6.874,203.456,6.16,213.4l-6.464,222.3-54.117,1-8.726-231.344s-5.72-63.815-21.139-123.073a459.357,459.357,0,0,1-14.168-92.938h0Z" fill="#262626"></path>
      <path d="M318.987,641.93l4.512-69.009s4.635,28.689,4.635,53.417c0,12.087-2.489,59.942-2.489,59.942Z" fill="#0a0a0a"></path>
      <path d="M239.348,493.051l-.18.01S239.3,489.591,239.348,493.051Z" fill="#333"></path>
    </g>
    <g>
      <path d="M239.574,493.051l-.18.01S239.524,489.591,239.574,493.051Z" fill="#333"></path>
      <g>
        <path d="M541.1,327.913a3.551,3.551,0,0,0-3.628-1.921.312.312,0,0,0-.04-.186.316.316,0,0,0-.292-.119l2.461-1.764a3.692,3.692,0,0,0,1.218-4.7,3.556,3.556,0,0,0-4.5-1.591c.007-.035-.017-.068-.022-.1l1.011-.724a3.648,3.648,0,0,0,1.282-4.432,3.564,3.564,0,0,0-5.322-1.431l-2.333,1.673c-.007-.014,0-.03-.009-.043s-.035-.018-.048-.032a3.556,3.556,0,0,0,.234-4.432c-1.1-1.772-3.643-1.409-5.152-.328l-13.732,9.485,2.454-4.132a3.7,3.7,0,0,0-.977-4.949,3.56,3.56,0,0,0-5.04,1.141l-13.4,22.562a11.828,11.828,0,0,0,3.841,16.034h0a17.926,17.926,0,0,0,20.033-.575l20.737-14.865A3.811,3.811,0,0,0,541.1,327.913Z" fill="#E98862"></path>
        <g opacity="0.25">
          <path d="M517.346,321.991a.327.327,0,0,0,.452.077l13.048-9.037a.328.328,0,1,0-.374-.54l-13.048,9.037a.329.329,0,0,0-.083.457Z" fill="#0c0c0c"></path>
        </g>
        <g opacity="0.25">
          <path d="M521.173,327.856a.327.327,0,0,0,.452.076l14.562-10.085a.329.329,0,0,0,.082-.457.34.34,0,0,0-.457-.083l-14.561,10.085a.33.33,0,0,0-.083.458Z" fill="#0c0c0c"></path>
        </g>
        <g opacity="0.25">
          <path d="M525.281,334.231a.328.328,0,0,0,.452.077l11.616-8.045a.328.328,0,0,0-.374-.54l-11.616,8.045a.329.329,0,0,0-.083.457Z" fill="#0c0c0c"></path>
        </g>
      </g>
      <path d="M487.357,326.751,448,393.783l-48.025-62.992L360.09,366.748,428.2,454.959l.446.628a27.233,27.233,0,0,0,46.092-3.374l55.968-101.354Z" fill="#006D77"></path>
      <path d="M444.14,401.844a.5.5,0,0,1-.446-.728l3.859-7.561a.5.5,0,0,1,.89.456l-3.858,7.56A.5.5,0,0,1,444.14,401.844Z" fill="#0c0c0c"></path>
      <rect x="386.499" y="403.516" width="21.206" height="1" transform="translate(-28.765 777.588) rotate(-86.752)" fill="#0c0c0c"></rect>
      <g>
        <g>
          <g>
            <path d="M270.38,240.177s-1.844,23.566-7.249,32.061c-15.561,24.456-20.307,52.117-5.178,66.771S370.649,355,378.426,321.78c6.547-27.963-6.772-31.131-9.754-54.3-1.349-10.482-5.139-32.471-5.139-32.471" fill="#0a0a0a"></path>
            <path id="sk" d="M353.588,316.471c-.168-.022-2.038,30.991-38.066,28.288-24.942-1.869-33.836-28.332-34.407-28.332,2.689-.571,7.218-1.4,8.412-2.04,3.927-2.11,8.787-4.306,10.053-11.933.73-4.4-.508-26.886-.127-31.334l38.286,8.546c-.535,9.393-4.279,31.17,8.844,35.025C348.767,315.328,351.119,315.914,353.588,316.471Z" fill="#E98862"></path>
            <path id="sh" d="M338.276,305.791a27.693,27.693,0,0,1-1.152-5.942,63.338,63.338,0,0,1,.25-13.821,41.979,41.979,0,0,1-21.16-9.271c-.711,2.626-4.621,14.1-3.538,16.593C314.722,298.067,324.338,305.791,338.276,305.791Z" fill="#0c0c0c" opacity="1"></path>
            <path d="M333.2,296.03c-15.11,1.285-34.57-4.978-38.382-25.125l-3.441-18.179c-3.813-20.147,3.678-38.482,22.648-42.072h0c18.969-3.59,36.239,10.059,40.052,30.206l1.523,8.048C357.064,256.638,360.162,293.736,333.2,296.03Z" fill="#E98862"></path>
            <circle cx="350.194" cy="247.407" r="2.378" fill="#0c0c0c"></circle>
            <circle cx="325.833" cy="250.662" r="2.378" fill="#0c0c0c"></circle>
            <path d="M339.2,268.1l.037-.006a21.168,21.168,0,0,0,2.275-.579c1.115-.359,2.576-.952,2.386-1.96-.217-1.148-5.706-12.939-6.331-14.279a.487.487,0,1,0-.883.411c2.341,5.022,6.11,13.276,6.256,14.049-.125.359-1.977,1.039-3.884,1.4a.487.487,0,0,0,.144.963Z" fill="#0c0c0c" opacity="1"></path>
            <path d="M336.393,276.793a19.907,19.907,0,0,0,8.631-3.279.487.487,0,1,0-.532-.816c-5.584,3.638-11.133,4.227-16.046,1.7a3.271,3.271,0,0,0-.306-.146.487.487,0,0,0-.331.917c.038.016.1.05.191.1A14.606,14.606,0,0,0,336.393,276.793Z" fill="#0c0c0c" opacity="1"></path>
            <path d="M276.2,259.061l17.006-3.117c12.878-5.212,16.773-27.506,16.773-27.506s15.643,15.247,53.552,6.575c0,0-7.6-52.868-63.606-37.5-18.059,4.957-31.02,23.155-29.405,47.476C271.653,262.038,276.2,259.061,276.2,259.061Z" fill="#0a0a0a"></path>
            <path d="M297.158,276.82c-5.764,1.091-11.605-4.192-12.7-9.957s2.981-9.828,8.746-10.919l3.7,3.3,5.206,16.638Z" fill="#E98862"></path>
            <path d="M341.043,241.636a11.14,11.14,0,0,1,5.624-1.776,9.815,9.815,0,0,1,2.924.309,11.593,11.593,0,0,1,2.709,1.073.509.509,0,0,1-.442.917l-.036-.017a10.507,10.507,0,0,0-2.487-.855,8.62,8.62,0,0,0-2.592-.156,9.779,9.779,0,0,0-4.786,1.729l-.046.034a.764.764,0,1,1-.9-1.238Z" fill="#0c0c0c"></path>
            <path d="M325.877,245.206a9.772,9.772,0,0,0-5.087.117,8.65,8.65,0,0,0-2.362,1.081,10.526,10.526,0,0,0-2.009,1.7l-.027.027a.509.509,0,0,1-.744-.694,11.56,11.56,0,0,1,2.139-1.979,9.8,9.8,0,0,1,2.614-1.345,11.167,11.167,0,0,1,5.887-.376.765.765,0,0,1-.322,1.5l-.031-.008Z" fill="#0c0c0c"></path>
            <path d="M337.051,281.368a9.988,9.988,0,0,0,1.656-.333.487.487,0,1,0-.269-.937c-3.261.939-5.115-.3-5.192-.358a.487.487,0,0,0-.56.8A6.6,6.6,0,0,0,337.051,281.368Z" fill="#0c0c0c" opacity="1"></path>
            <path d="M293.245,255.728l-.169-.471c21.545-7.734,16.276-28.877,16.221-29.09l.483-.127C309.837,226.257,315.226,247.837,293.245,255.728Z" fill="#0c0c0c"></path>
          </g>
          <ellipse cx="323.558" cy="266.274" rx="4.53" ry="3.323" transform="matrix(0.994, -0.107, 0.107, 0.994, -26.629, 36.142)" fill="#0c0c0c" opacity="0.1"></ellipse>
          <path d="M350.243,262.6c.2,1.822,2.376,3.082,4.864,2.818a6.29,6.29,0,0,0,1.265-.272c.14-2.168.171-4.254.13-6.187a5.7,5.7,0,0,0-2.109-.148C351.905,259.074,350.049,260.77,350.243,262.6Z" fill="#0c0c0c" opacity="0.1"></path>
        </g>
        <path d="M398.351,384.748c-1.135,13.332-6.655,96.51-7.746,112.932H246.233c-.85-14.811-10.664-79.576-13.885-108.539-3.075-27.638-9.108-41.475-4.686-49.646,7.226-13.354,26.972-21.071,40.436-22.894,8.222-1.112,20.587-1.91,20.587-1.91s1.047,21.18,26.013,22.359c33.985,1.6,31.716-22.359,31.884-22.359,5.506,0,36.958,3.485,44.653,8.046C412.2,335.154,400.76,356.5,398.351,384.748Z" fill="#006D77"></path>
        <path d="M492.063,394.062,478.146,461.7A6.13,6.13,0,0,1,472.2,466.6l-95.826.816a6.13,6.13,0,0,1-6.056-7.365l13.916-67.64a6.131,6.131,0,0,1,5.952-4.894l95.826-.816A6.13,6.13,0,0,1,492.063,394.062Z" fill="#292a2e"></path>
        <g>
          <path d="M402.707,442.107a3.7,3.7,0,0,1-2.97,3.84l-2.95.65a.339.339,0,0,1,.22.23.283.283,0,0,1-.04.18,3.546,3.546,0,0,1,2.58,3.2,3.809,3.809,0,0,1-2.91,3.72l-24.91,5.53a17.677,17.677,0,0,1-3.88.43,17.927,17.927,0,0,1-14.77-7.77,11.818,11.818,0,0,1,2.76-16.25l21.19-15.49a3.572,3.572,0,0,1,1.58-.65l-1.95,9.47.52-.12.11-.02,16.25-3.31c1.81-.4,4.29.26,4.61,2.32a3.576,3.576,0,0,1-1.96,3.99c.01.01.03.02.03.04s-.01.03-.01.05l2.81-.62a3.56,3.56,0,0,1,4.33,3.4,3.643,3.643,0,0,1-2.92,3.57l-1.21.27c-.01.04,0,.08-.02.11A3.551,3.551,0,0,1,402.707,442.107Z" fill="#E98862"></path>
          <g opacity="0.25">
            <path d="M380.031,435.43a.328.328,0,0,0,.386.248l15.548-3.189a.328.328,0,1,0-.132-.643l-15.548,3.188a.329.329,0,0,0-.256.388Z" fill="#0c0c0c"></path>
          </g>
          <g opacity="0.25">
            <path d="M381.248,442.326a.329.329,0,0,0,.386.248l17.352-3.558a.33.33,0,0,0,.256-.388.341.341,0,0,0-.388-.256L381.5,441.931a.328.328,0,0,0-.256.387Z" fill="#0c0c0c"></path>
          </g>
          <g opacity="0.25">
            <path d="M382.523,449.8a.329.329,0,0,0,.386.248l13.841-2.839a.328.328,0,1,0-.132-.643l-13.841,2.838a.329.329,0,0,0-.256.388Z" fill="#0c0c0c"></path>
          </g>
        </g>
        <path id="b_4_b" d="M370.185,469.313,235.04,493.736A27.455,27.455,0,0,1,205,461.887L223.914,349.43a27.455,27.455,0,1,1,54.149,9.11l-12.9,77.415,99.081-12.443Z" fill="#006D77"></path>
        <g id="b_4_b-2" data-name="b_4_b">
          <path d="M235.039,494.236a.5.5,0,0,1-.088-.992l134.677-24.338-5.816-44.836-98.587,12.381a.494.494,0,0,1-.423-.149.5.5,0,0,1-.133-.429l8.2-49.478a.494.494,0,0,1,.575-.411.5.5,0,0,1,.412.575l-8.092,48.816,98.416-12.36a.5.5,0,0,1,.558.432l5.942,45.8a.5.5,0,0,1-.407.556L235.129,494.228A.547.547,0,0,1,235.039,494.236Z" fill="#0c0c0c"></path>
        </g>
        <rect x="256.414" y="436.153" width="8.804" height="1.001" transform="translate(-65.741 46.716) rotate(-9.095)" fill="#0c0c0c"></rect>
      </g>
    </g>
  </g>
  <g>
    <g>
      <rect x="620.877" y="553.252" width="340.242" height="145.753" rx="22.244" fill="#fff"></rect>
      <rect x="620.877" y="553.252" width="340.242" height="145.753" rx="22.244" fill="#006D77" opacity="0.4"></rect>
      <path d="M938.875,700H643.121a23.271,23.271,0,0,1-23.244-23.244V575.5a23.271,23.271,0,0,1,23.244-23.244H938.875A23.271,23.271,0,0,1,962.119,575.5V676.76A23.271,23.271,0,0,1,938.875,700ZM643.121,554.252A21.268,21.268,0,0,0,621.877,575.5V676.76A21.268,21.268,0,0,0,643.121,698H938.875a21.268,21.268,0,0,0,21.244-21.244V575.5a21.268,21.268,0,0,0-21.244-21.244Z" fill="#292a2e"></path>
    </g>
    <g>
      <path d="M651.387,667.949a1.5,1.5,0,0,1-1.262-2.311c.325-.5,33.011-50.479,84.955-50.479,27.142,0,43.587,10.473,59.492,20.6,14.721,9.376,28.627,18.232,50.144,18.232,43.993,0,79.433-63.891,79.785-64.536a1.5,1.5,0,1,1,2.633,1.439c-1.475,2.7-36.663,66.1-82.418,66.1-22.391,0-36.655-9.084-51.756-18.7-15.542-9.9-31.612-20.133-57.88-20.133-50.284,0-82.114,48.609-82.43,49.1A1.5,1.5,0,0,1,651.387,667.949Z" fill="#fff"></path>
      <circle cx="926.238" cy="590.177" r="5.87" fill="#fff"></circle>
    </g>
  </g>
</svg>