<?xml version="1.0" standalone="no"?>
<!DOCTYPE svg PUBLIC "-//W3C//DTD SVG 20010904//EN"
 "http://www.w3.org/TR/2001/REC-SVG-20010904/DTD/svg10.dtd">
<svg version="1.0" xmlns="http://www.w3.org/2000/svg"
 width="2000.000000pt" height="1428.000000pt" viewBox="0 0 2000.000000 1428.000000"
 preserveAspectRatio="xMidYMid meet">

<g transform="translate(0.000000,1428.000000) scale(0.100000,-0.100000)"
fill="#000000" stroke="none">
<path d="M2226 14269 c-375 -55 -663 -310 -764 -677 l-27 -97 -3 -5082 -2
-5083 8570 0 8570 0 -3 5073 c-3 4762 -4 5076 -20 5141 -59 235 -164 407 -327
536 -82 65 -239 142 -350 172 l-85 23 -7750 1 c-4318 1 -7776 -2 -7809 -7z
m9088 -1665 c154 -39 284 -167 330 -324 17 -57 23 -184 10 -235 -12 -54 -2415
-6779 -2440 -6832 -51 -107 -177 -203 -311 -238 -223 -58 -460 69 -554 296
-19 44 -23 74 -23 159 l-1 105 1219 3410 c842 2357 1228 3425 1251 3460 60 93
157 168 260 201 56 18 186 17 259 -2z m-4048 -1188 c162 -43 296 -178 339
-341 48 -184 -25 -388 -178 -498 -28 -20 -739 -425 -1579 -900 -840 -474
-1528 -866 -1529 -871 -1 -8 2857 -1620 3066 -1729 233 -122 335 -359 255
-592 -42 -122 -132 -218 -260 -279 -56 -26 -78 -31 -165 -34 -119 -4 -188 14
-293 76 -37 22 -893 505 -1902 1072 -1009 568 -1864 1049 -1900 1070 -164 96
-250 241 -250 420 0 90 25 183 68 250 70 110 36 90 2099 1250 1074 604 1969
1102 1990 1108 56 15 181 14 239 -2z m5749 -18 c33 -14 924 -511 1980 -1105
1499 -844 1932 -1092 1977 -1132 117 -106 164 -218 156 -374 -8 -148 -69 -268
-176 -349 -26 -19 -897 -514 -1937 -1098 -1039 -585 -1915 -1078 -1945 -1096
-314 -190 -695 -7 -735 354 -20 172 79 364 231 450 33 18 746 419 1586 890
840 471 1527 862 1527 867 0 6 -696 403 -1547 884 -851 480 -1565 887 -1586
904 -22 17 -58 57 -82 89 -118 160 -119 381 -5 549 47 68 155 151 235 178 86
30 235 25 321 -11z"/>
<path d="M3 1248 c3 -338 7 -424 21 -475 99 -384 487 -656 1071 -750 105 -17
522 -18 8910 -18 l8800 0 125 22 c625 110 1015 422 1060 847 5 50 10 247 10
439 l0 347 -10001 0 -10001 0 5 -412z"/>
</g>
</svg>
