<svg id="svg" version="1.1" xmlns="http://www.w3.org/2000/svg" xmlns:xlink="http://www.w3.org/1999/xlink" width="400" height="66.39999999999999" viewBox="0, 0, 400,66.39999999999999"><g id="svgg"><path id="path0" d="M7.167 0.167 C 7.167 0.258,7.110 0.318,7.042 0.299 C 6.503 0.150,4.428 0.651,4.167 0.992 C 4.121 1.052,3.803 1.231,3.461 1.390 C 3.118 1.550,2.758 1.829,2.661 2.011 C 2.563 2.194,2.410 2.297,2.321 2.242 C 2.232 2.187,2.179 2.241,2.204 2.363 C 2.229 2.484,2.156 2.565,2.042 2.542 C 1.927 2.519,1.833 2.646,1.833 2.823 C 1.833 3.001,1.764 3.190,1.679 3.242 C 1.594 3.295,1.433 3.618,1.321 3.961 C 1.210 4.303,1.035 4.637,0.934 4.702 C 0.721 4.840,0.496 51.333,0.708 51.333 C 0.777 51.333,0.833 51.483,0.833 51.667 C 0.833 51.850,0.908 52.000,1.000 52.000 C 1.092 52.000,1.151 52.056,1.133 52.125 C 0.858 53.129,4.000 56.333,5.259 56.333 C 5.391 56.333,5.500 56.395,5.500 56.471 C 5.500 56.547,5.725 56.576,6.000 56.536 C 6.300 56.492,6.500 56.536,6.500 56.648 C 6.500 56.782,9.796 56.833,18.500 56.833 L 30.500 56.833 30.502 59.875 C 30.504 61.548,30.549 63.084,30.604 63.289 L 30.704 63.662 25.560 63.706 L 20.417 63.750 20.333 64.794 C 20.262 65.689,20.292 65.851,20.544 65.931 C 20.706 65.982,20.795 66.094,20.743 66.179 C 20.684 66.273,27.624 66.333,38.657 66.333 C 50.552 66.333,56.667 66.277,56.667 66.167 C 56.667 66.075,56.809 66.000,56.982 66.000 C 57.368 66.000,57.500 65.687,57.500 64.770 C 57.500 63.636,57.655 63.667,51.979 63.667 L 46.858 63.667 46.840 60.208 L 46.823 56.750 58.941 56.796 C 66.771 56.826,71.094 56.784,71.160 56.678 C 71.216 56.587,71.577 56.492,71.964 56.465 C 72.389 56.436,72.666 56.334,72.666 56.208 C 72.667 56.094,72.755 56.000,72.864 56.000 C 73.183 56.000,74.500 55.317,74.500 55.152 C 74.500 55.068,74.609 55.000,74.743 55.000 C 74.877 55.000,75.184 54.662,75.425 54.250 C 75.667 53.837,75.922 53.500,75.993 53.500 C 76.063 53.500,76.282 52.988,76.480 52.361 L 76.839 51.223 76.830 27.957 C 76.825 11.749,76.769 4.673,76.646 4.632 C 76.549 4.600,76.457 4.373,76.443 4.128 C 76.429 3.884,76.248 3.557,76.042 3.402 C 75.835 3.247,75.667 2.993,75.667 2.838 C 75.667 2.683,75.480 2.456,75.252 2.334 C 74.908 2.150,74.872 2.069,75.044 1.858 C 75.186 1.682,75.190 1.639,75.054 1.720 C 74.864 1.834,73.805 1.308,73.363 0.880 C 73.242 0.763,73.036 0.667,72.905 0.667 C 72.774 0.667,72.667 0.610,72.667 0.542 C 72.667 0.473,72.460 0.410,72.208 0.402 C 71.210 0.371,70.500 0.259,70.500 0.133 C 70.500 0.060,56.250 0.000,38.833 0.000 C 17.833 0.000,7.167 0.056,7.167 0.167 M67.094 6.983 C 67.044 7.064,67.246 7.176,67.543 7.232 C 68.240 7.363,69.333 8.514,69.518 9.313 C 69.596 9.645,69.661 18.270,69.663 28.481 C 69.667 47.639,69.648 48.225,69.010 48.466 C 68.679 48.591,68.425 48.846,68.300 49.177 C 68.052 49.831,67.865 49.835,38.603 49.832 C 22.076 49.831,10.333 49.768,10.333 49.680 C 10.333 49.598,10.172 49.573,9.974 49.625 C 9.706 49.695,9.649 49.663,9.750 49.501 C 9.843 49.350,9.820 49.322,9.678 49.410 C 9.470 49.538,8.333 48.496,8.333 48.178 C 8.333 48.093,8.202 47.893,8.042 47.732 C 7.552 47.242,7.503 8.943,7.993 9.246 C 8.066 9.291,8.169 9.114,8.221 8.852 C 8.327 8.323,9.275 7.277,9.514 7.425 C 9.598 7.477,9.667 7.440,9.667 7.343 C 9.667 7.246,9.817 7.167,10.000 7.167 C 10.183 7.167,10.333 7.092,10.333 7.001 C 10.333 6.892,20.030 6.835,38.759 6.835 C 55.194 6.835,67.147 6.897,67.094 6.983 M347.355 9.289 C 345.509 9.534,344.500 9.787,344.500 10.006 C 344.500 10.095,344.354 10.167,344.177 10.167 C 343.999 10.167,343.803 10.247,343.743 10.345 C 343.682 10.443,343.524 10.481,343.391 10.430 C 343.256 10.378,343.194 10.410,343.251 10.502 C 343.307 10.593,343.265 10.667,343.158 10.667 C 342.754 10.667,340.539 12.886,340.288 13.542 C 340.227 13.702,340.108 13.833,340.023 13.833 C 339.939 13.833,339.822 14.024,339.763 14.257 C 339.705 14.490,339.585 14.636,339.497 14.581 C 339.409 14.527,339.380 14.593,339.431 14.728 C 339.519 14.957,339.256 15.644,339.008 15.833 C 338.873 15.937,338.167 18.373,338.167 18.736 C 338.167 18.881,338.102 19.000,338.023 19.000 C 337.943 19.000,337.828 19.356,337.767 19.792 C 337.705 20.227,337.575 21.146,337.477 21.833 C 337.380 22.521,337.308 23.290,337.319 23.542 C 337.330 23.794,337.281 24.000,337.211 24.000 C 337.141 24.000,337.094 24.562,337.108 25.250 C 337.121 25.937,337.065 26.500,336.983 26.500 C 336.897 26.500,336.833 29.239,336.833 32.917 C 336.833 36.824,336.895 39.333,336.990 39.333 C 337.077 39.333,337.151 39.690,337.156 40.125 C 337.172 41.595,337.319 43.242,337.569 44.737 C 337.706 45.555,337.783 46.280,337.740 46.349 C 337.698 46.417,337.785 46.594,337.933 46.743 C 338.082 46.892,338.164 47.158,338.117 47.339 C 338.070 47.519,338.089 47.667,338.159 47.667 C 338.230 47.667,338.385 48.123,338.503 48.680 C 338.621 49.238,338.824 49.801,338.954 49.930 C 339.084 50.060,339.143 50.167,339.086 50.167 C 339.028 50.167,339.098 50.333,339.241 50.537 C 339.383 50.741,339.500 51.111,339.500 51.359 C 339.500 51.642,339.609 51.846,339.792 51.906 C 339.952 51.958,340.233 52.317,340.417 52.703 C 340.600 53.089,340.919 53.552,341.125 53.732 C 341.331 53.913,341.500 54.142,341.500 54.242 C 341.500 54.342,341.762 54.566,342.083 54.738 C 342.404 54.911,342.667 55.138,342.667 55.242 C 342.667 55.346,343.004 55.571,343.417 55.741 C 343.829 55.911,344.167 56.100,344.167 56.161 C 344.167 56.303,346.015 56.909,346.292 56.857 C 346.406 56.836,346.500 56.887,346.500 56.970 C 346.500 57.053,346.695 57.083,346.934 57.037 C 347.184 56.990,347.423 57.042,347.496 57.161 C 347.660 57.425,351.960 57.407,352.281 57.141 C 352.399 57.043,352.607 57.005,352.743 57.057 C 352.878 57.109,353.031 57.085,353.082 57.003 C 353.132 56.921,353.322 56.882,353.504 56.917 C 353.685 56.952,353.833 56.898,353.833 56.796 C 353.833 56.694,353.876 56.654,353.928 56.706 C 353.981 56.759,354.219 56.700,354.458 56.576 C 354.697 56.452,354.944 56.382,355.007 56.421 C 355.071 56.460,355.256 56.344,355.420 56.163 C 355.584 55.982,355.823 55.833,355.950 55.833 C 356.078 55.833,356.366 55.649,356.591 55.424 C 356.816 55.199,357.000 55.046,357.000 55.083 C 357.000 55.121,357.188 54.964,357.417 54.735 C 357.646 54.506,357.833 54.247,357.833 54.159 C 357.833 54.072,357.915 54.000,358.015 54.000 C 358.243 54.000,358.820 53.320,358.828 53.042 C 358.831 52.927,358.907 52.833,358.997 52.833 C 359.086 52.833,359.321 52.515,359.519 52.125 C 359.717 51.735,359.935 51.379,360.006 51.333 C 360.076 51.288,360.265 50.837,360.425 50.333 C 360.586 49.829,360.790 49.323,360.879 49.208 C 360.968 49.094,360.975 48.999,360.895 48.997 C 360.815 48.996,360.845 48.934,360.962 48.861 C 361.169 48.729,361.833 45.719,361.833 44.911 C 361.833 44.685,361.898 44.500,361.977 44.500 C 362.136 44.500,362.292 43.378,362.423 41.290 C 362.470 40.535,362.553 39.429,362.608 38.833 C 362.663 38.237,362.685 35.650,362.659 33.083 C 362.632 30.517,362.604 27.648,362.597 26.708 C 362.589 25.769,362.528 25.000,362.460 25.000 C 362.391 25.000,362.346 24.719,362.358 24.375 C 362.371 24.031,362.324 23.422,362.256 23.021 C 362.162 22.476,362.180 22.322,362.327 22.413 C 362.522 22.533,362.210 21.856,361.984 21.667 C 361.929 21.621,361.877 21.471,361.868 21.333 C 361.781 19.926,361.207 17.333,360.982 17.333 C 360.900 17.333,360.833 17.251,360.833 17.151 C 360.833 16.761,360.299 15.156,360.104 14.958 C 359.909 14.761,359.629 14.215,359.598 13.972 C 359.590 13.910,359.433 13.685,359.250 13.472 C 359.067 13.258,358.774 12.863,358.600 12.593 C 358.197 11.969,357.323 11.167,357.046 11.167 C 356.929 11.167,356.833 11.089,356.833 10.994 C 356.833 10.899,356.479 10.669,356.045 10.484 C 355.611 10.298,355.216 10.080,355.166 9.999 C 355.116 9.918,354.702 9.755,354.246 9.637 C 353.790 9.519,353.379 9.381,353.333 9.332 C 353.287 9.282,352.912 9.234,352.500 9.225 C 352.087 9.217,351.109 9.181,350.326 9.146 C 349.543 9.112,348.206 9.176,347.355 9.289 M167.542 9.458 L 161.167 9.504 161.167 33.169 L 161.167 56.833 165.750 56.833 L 170.333 56.833 170.333 47.659 L 170.333 38.485 171.540 38.534 C 172.594 38.577,172.754 38.625,172.809 38.917 C 172.844 39.100,172.941 39.294,173.025 39.347 C 173.110 39.400,173.195 39.906,173.214 40.470 C 173.234 41.035,173.294 41.498,173.347 41.498 C 173.401 41.499,173.451 41.594,173.459 41.708 C 173.501 42.338,173.891 44.152,174.076 44.583 C 174.194 44.858,174.425 45.946,174.588 47.000 C 174.752 48.054,174.949 48.958,175.025 49.009 C 175.102 49.060,175.184 49.491,175.208 49.966 C 175.231 50.442,175.291 50.831,175.340 50.832 C 175.390 50.833,175.530 51.490,175.652 52.292 C 175.775 53.094,175.943 53.794,176.027 53.847 C 176.111 53.900,176.195 54.398,176.214 54.954 C 176.234 55.510,176.306 55.930,176.375 55.889 C 176.444 55.848,176.500 56.043,176.500 56.323 L 176.500 56.833 181.476 56.833 L 186.452 56.833 186.282 55.958 C 186.189 55.477,186.062 55.046,186.001 55.000 C 185.831 54.873,185.150 51.495,185.259 51.319 C 185.312 51.234,185.248 51.123,185.117 51.073 C 184.962 51.014,184.746 50.266,184.492 48.908 C 184.278 47.767,184.024 46.832,183.927 46.831 C 183.830 46.829,183.862 46.756,184.000 46.667 C 184.138 46.578,184.164 46.504,184.058 46.503 C 183.833 46.500,183.424 44.939,183.557 44.592 C 183.607 44.462,183.580 44.331,183.497 44.302 C 183.414 44.274,183.310 43.957,183.265 43.599 C 183.221 43.241,183.105 42.899,183.008 42.838 C 182.910 42.778,182.812 42.415,182.790 42.032 C 182.768 41.649,182.704 41.335,182.649 41.334 C 182.593 41.334,182.451 40.771,182.333 40.083 C 182.216 39.396,182.055 38.833,181.976 38.833 C 181.898 38.833,181.833 38.754,181.833 38.657 C 181.833 38.560,181.916 38.531,182.017 38.594 C 182.118 38.657,182.087 38.530,181.946 38.312 C 181.725 37.969,181.515 37.189,181.413 36.333 C 181.329 35.634,181.104 34.740,180.993 34.667 C 180.870 34.586,180.780 33.883,180.816 33.292 C 180.825 33.131,180.931 33.000,181.050 33.000 C 181.274 33.000,182.667 31.706,182.667 31.498 C 182.667 31.434,182.863 31.171,183.102 30.912 C 183.341 30.654,183.611 30.230,183.702 29.971 C 183.792 29.712,183.925 29.500,183.998 29.500 C 184.070 29.500,184.179 29.237,184.239 28.917 C 184.299 28.596,184.413 28.333,184.492 28.333 C 184.571 28.333,184.596 28.183,184.548 28.000 C 184.498 27.806,184.543 27.667,184.657 27.667 C 184.765 27.667,184.811 27.599,184.761 27.517 C 184.618 27.287,184.859 25.829,185.022 25.930 C 185.102 25.979,185.173 25.734,185.181 25.385 C 185.188 25.036,185.217 24.600,185.246 24.417 C 185.453 23.062,185.232 18.898,184.957 18.972 C 184.843 19.003,184.798 18.980,184.857 18.921 C 184.915 18.862,184.854 18.397,184.721 17.888 C 184.588 17.378,184.519 16.857,184.568 16.730 C 184.616 16.604,184.584 16.500,184.495 16.500 C 184.406 16.500,184.333 16.355,184.333 16.179 C 184.333 16.002,184.221 15.745,184.083 15.607 C 183.946 15.470,183.833 15.274,183.833 15.173 C 183.833 15.071,183.711 14.801,183.561 14.572 C 183.411 14.343,183.332 14.113,183.385 14.060 C 183.525 13.920,180.880 11.333,180.598 11.333 C 180.468 11.333,180.334 11.252,180.301 11.152 C 180.234 10.951,178.598 10.333,178.131 10.333 C 177.967 10.333,177.833 10.261,177.833 10.172 C 177.833 10.083,177.713 10.057,177.567 10.113 C 177.420 10.169,177.241 10.120,177.169 10.003 C 177.035 9.787,176.373 9.684,174.958 9.661 C 174.523 9.654,174.167 9.577,174.167 9.490 C 174.167 9.404,174.110 9.351,174.042 9.373 C 173.973 9.395,171.048 9.433,167.542 9.458 M194.708 9.458 L 188.333 9.504 188.333 33.169 L 188.333 56.833 192.917 56.833 L 197.500 56.833 197.500 47.667 L 197.500 38.500 198.853 38.500 L 200.206 38.500 200.126 38.917 C 200.082 39.146,200.095 39.333,200.154 39.333 C 200.259 39.333,200.547 40.779,200.767 42.417 C 200.829 42.875,200.945 43.293,201.026 43.345 C 201.159 43.431,201.309 44.219,201.407 45.346 C 201.428 45.582,201.487 45.845,201.539 45.929 C 201.591 46.014,201.688 46.533,201.754 47.083 C 201.820 47.633,201.949 48.176,202.039 48.290 C 202.130 48.403,202.160 48.609,202.107 48.748 C 202.054 48.887,202.072 49.000,202.146 49.000 C 202.221 49.000,202.423 49.894,202.595 50.987 C 202.767 52.079,202.966 52.937,203.037 52.894 C 203.108 52.850,203.177 53.024,203.190 53.282 C 203.203 53.539,203.246 54.012,203.285 54.333 C 203.324 54.654,203.369 55.123,203.386 55.375 C 203.402 55.627,203.472 55.833,203.541 55.833 C 203.610 55.833,203.667 56.058,203.667 56.333 L 203.667 56.833 208.642 56.833 L 213.618 56.833 213.364 55.542 C 213.225 54.831,213.038 54.201,212.948 54.142 C 212.858 54.082,212.831 53.914,212.887 53.767 C 212.943 53.620,212.908 53.500,212.809 53.500 C 212.706 53.500,212.662 53.321,212.707 53.083 C 212.751 52.854,212.733 52.667,212.667 52.667 C 212.601 52.667,212.449 52.085,212.329 51.375 C 212.210 50.665,212.050 50.042,211.975 49.992 C 211.719 49.820,211.371 47.531,211.569 47.315 C 211.702 47.171,211.695 47.149,211.545 47.233 C 211.403 47.313,211.306 47.141,211.232 46.675 C 211.173 46.304,211.071 46.000,211.006 46.000 C 210.942 46.000,210.882 45.906,210.874 45.792 C 210.867 45.677,210.814 45.396,210.757 45.167 C 210.701 44.938,210.620 44.563,210.578 44.333 C 210.324 42.948,210.093 42.070,209.958 41.981 C 209.872 41.924,209.791 41.568,209.776 41.190 C 209.762 40.812,209.703 40.501,209.645 40.501 C 209.587 40.500,209.442 39.900,209.323 39.167 C 209.204 38.433,209.041 37.833,208.960 37.833 C 208.880 37.833,208.857 37.764,208.910 37.678 C 208.962 37.593,208.925 37.473,208.826 37.412 C 208.728 37.351,208.663 37.140,208.682 36.942 C 208.701 36.745,208.660 36.452,208.590 36.292 C 208.521 36.131,208.508 35.888,208.560 35.750 C 208.613 35.612,208.591 35.500,208.510 35.500 C 208.430 35.500,208.313 35.125,208.250 34.667 C 208.187 34.208,208.067 33.833,207.984 33.833 C 207.660 33.833,207.862 33.396,208.371 33.000 C 208.665 32.771,209.058 32.433,209.244 32.250 C 209.431 32.067,209.645 31.937,209.721 31.962 C 209.796 31.988,209.811 31.931,209.753 31.837 C 209.694 31.744,209.731 31.667,209.833 31.667 C 209.936 31.667,209.977 31.598,209.925 31.514 C 209.874 31.430,209.888 31.337,209.957 31.306 C 210.202 31.197,210.984 30.040,210.882 29.937 C 210.825 29.880,210.886 29.833,211.019 29.833 C 211.158 29.833,211.276 29.652,211.296 29.408 C 211.315 29.174,211.397 28.855,211.477 28.699 C 211.557 28.544,211.674 28.135,211.736 27.792 C 211.798 27.448,211.939 27.166,212.049 27.165 C 212.185 27.164,212.265 26.724,212.297 25.796 C 212.323 25.045,212.398 24.389,212.464 24.340 C 212.631 24.214,212.614 21.333,212.446 21.333 C 212.370 21.333,212.324 21.015,212.343 20.625 C 212.392 19.619,212.153 17.833,211.969 17.833 C 211.883 17.833,211.857 17.764,211.910 17.678 C 211.962 17.593,211.929 17.476,211.836 17.418 C 211.743 17.361,211.667 17.177,211.667 17.009 C 211.667 16.490,211.106 14.940,210.813 14.646 C 210.659 14.493,210.483 14.135,210.420 13.850 C 210.358 13.566,210.233 13.333,210.143 13.333 C 210.052 13.333,209.585 12.921,209.105 12.417 C 208.624 11.912,208.141 11.500,208.032 11.500 C 207.923 11.500,207.701 11.369,207.539 11.208 C 207.212 10.884,205.242 10.167,204.677 10.167 C 204.477 10.167,204.354 10.102,204.403 10.023 C 204.499 9.867,203.188 9.670,202.042 9.668 C 201.652 9.667,201.333 9.592,201.333 9.500 C 201.333 9.408,201.277 9.351,201.208 9.373 C 201.140 9.395,198.215 9.433,194.708 9.458 M255.458 9.460 L 249.500 9.504 249.500 33.169 L 249.500 56.833 254.958 56.851 C 257.960 56.861,260.698 56.880,261.042 56.893 C 261.385 56.906,261.667 56.866,261.667 56.804 C 261.667 56.741,262.060 56.686,262.542 56.680 C 263.023 56.675,263.529 56.644,263.667 56.612 C 263.804 56.581,264.273 56.496,264.708 56.425 C 265.144 56.354,265.500 56.229,265.500 56.148 C 265.500 55.959,265.878 56.031,266.039 56.250 C 266.110 56.346,266.163 56.302,266.164 56.147 C 266.166 55.969,266.426 55.804,266.921 55.665 C 267.336 55.549,267.730 55.371,267.796 55.269 C 267.862 55.167,268.281 54.896,268.726 54.667 C 269.172 54.438,269.575 54.153,269.622 54.036 C 269.669 53.918,269.923 53.709,270.187 53.573 C 270.451 53.436,270.667 53.244,270.667 53.146 C 270.667 53.048,270.873 52.753,271.125 52.492 C 271.871 51.719,272.062 51.450,272.487 50.578 C 272.708 50.123,272.938 49.712,272.997 49.667 C 273.119 49.571,273.833 47.338,273.833 47.051 C 273.833 46.946,273.904 46.836,273.990 46.806 C 274.144 46.751,274.181 46.614,274.413 45.250 C 274.475 44.883,274.567 44.471,274.616 44.333 C 274.693 44.120,274.736 43.718,274.865 42.000 C 274.875 41.862,274.940 41.712,275.009 41.667 C 275.150 41.572,275.364 38.452,275.370 36.375 C 275.373 35.619,275.441 35.000,275.522 35.000 C 275.604 35.000,275.636 34.644,275.595 34.208 C 275.467 32.866,275.340 30.530,275.254 27.928 C 275.203 26.397,275.102 25.396,274.990 25.327 C 274.890 25.265,274.827 25.110,274.851 24.982 C 274.875 24.855,274.832 24.262,274.755 23.667 C 274.678 23.071,274.601 22.471,274.586 22.333 C 274.570 22.196,274.505 21.858,274.442 21.583 C 274.378 21.308,274.295 20.828,274.255 20.515 C 274.216 20.203,274.124 19.903,274.050 19.849 C 273.887 19.728,273.800 19.397,273.771 18.792 C 273.760 18.540,273.689 18.334,273.615 18.334 C 273.541 18.334,273.527 18.258,273.583 18.167 C 273.640 18.075,273.613 18.000,273.523 18.000 C 273.433 18.000,273.310 17.775,273.250 17.500 C 273.190 17.225,273.087 17.000,273.021 17.000 C 272.955 17.000,272.761 16.660,272.590 16.243 C 272.418 15.827,272.140 15.328,271.972 15.135 C 271.645 14.757,271.558 14.413,271.833 14.583 C 271.925 14.640,272.000 14.599,272.000 14.492 C 272.000 14.385,271.893 14.339,271.762 14.389 C 271.478 14.498,271.092 14.088,271.245 13.841 C 271.305 13.745,271.250 13.667,271.124 13.667 C 270.808 13.667,269.121 12.042,269.239 11.852 C 269.291 11.767,269.202 11.732,269.041 11.774 C 268.880 11.816,268.597 11.710,268.412 11.538 C 268.227 11.366,267.993 11.252,267.891 11.286 C 267.789 11.320,267.596 11.239,267.463 11.106 C 267.217 10.860,265.109 10.167,264.607 10.167 C 264.456 10.167,264.333 10.102,264.333 10.022 C 264.333 9.859,263.256 9.659,262.250 9.635 C 261.883 9.627,261.546 9.574,261.500 9.518 C 261.454 9.462,258.735 9.436,255.458 9.460 M95.667 33.167 L 95.667 56.833 100.417 56.833 L 105.167 56.833 105.167 47.875 L 105.167 38.917 105.792 38.908 C 107.119 38.889,109.763 38.685,110.034 38.580 C 110.190 38.520,110.391 38.516,110.481 38.571 C 110.570 38.627,110.689 38.599,110.744 38.510 C 110.799 38.421,110.953 38.390,111.087 38.441 C 111.221 38.493,111.374 38.422,111.427 38.284 C 111.480 38.146,111.797 37.981,112.131 37.919 C 112.709 37.810,113.655 37.403,113.833 37.185 C 113.879 37.129,114.254 36.899,114.667 36.675 C 115.079 36.450,115.545 36.112,115.703 35.925 C 115.860 35.737,115.991 35.645,115.994 35.720 C 116.001 35.874,116.500 35.415,116.500 35.255 C 116.500 35.199,116.812 34.856,117.194 34.493 C 117.575 34.130,117.819 33.831,117.735 33.828 C 117.652 33.825,117.696 33.731,117.833 33.620 C 117.971 33.508,118.190 33.210,118.320 32.958 C 118.450 32.706,118.616 32.500,118.690 32.500 C 118.763 32.500,118.783 32.397,118.735 32.271 C 118.687 32.146,118.750 31.940,118.875 31.813 C 119.000 31.687,119.202 31.227,119.323 30.792 C 119.444 30.356,119.590 30.000,119.647 30.000 C 119.703 29.999,119.760 29.793,119.771 29.541 C 119.800 28.928,119.887 28.605,120.059 28.480 C 120.137 28.422,120.238 27.822,120.284 27.146 C 120.329 26.470,120.452 25.809,120.558 25.676 C 120.706 25.491,120.703 25.465,120.542 25.561 C 120.393 25.650,120.333 25.540,120.333 25.177 C 120.333 24.896,120.390 24.667,120.458 24.667 C 120.527 24.667,120.583 24.442,120.583 24.167 C 120.583 23.892,120.523 23.667,120.450 23.667 C 120.376 23.667,120.327 23.123,120.341 22.458 C 120.371 21.045,120.195 19.607,119.982 19.528 C 119.900 19.497,119.833 19.395,119.833 19.302 C 119.833 19.208,119.965 19.181,120.125 19.242 C 120.341 19.325,120.319 19.263,120.042 19.004 C 119.835 18.811,119.667 18.543,119.667 18.408 C 119.667 17.904,119.110 16.182,118.974 16.266 C 118.897 16.314,118.833 16.233,118.833 16.087 C 118.833 15.941,118.714 15.640,118.569 15.418 C 118.424 15.196,118.361 14.918,118.429 14.799 C 118.497 14.680,118.498 14.633,118.429 14.695 C 118.279 14.829,117.667 14.333,117.667 14.077 C 117.667 13.977,117.399 13.657,117.071 13.368 C 116.716 13.053,116.525 12.761,116.597 12.644 C 116.667 12.532,116.647 12.493,116.550 12.552 C 116.338 12.683,115.290 11.765,115.459 11.597 C 115.527 11.528,115.508 11.492,115.417 11.516 C 115.164 11.583,113.833 11.133,113.833 10.980 C 113.833 10.906,113.515 10.763,113.125 10.661 C 112.735 10.559,112.323 10.355,112.208 10.206 C 112.065 10.021,112.000 10.004,112.000 10.153 C 112.000 10.294,111.898 10.327,111.708 10.248 C 111.548 10.181,111.304 10.125,111.167 10.122 C 111.029 10.119,110.879 10.060,110.833 9.991 C 110.641 9.703,106.741 9.500,101.388 9.500 L 95.667 9.500 95.667 33.167 M122.747 33.167 L 122.750 56.833 127.542 56.833 L 132.333 56.833 132.333 33.167 L 132.333 9.500 127.538 9.500 L 122.743 9.500 122.747 33.167 M136.500 33.167 L 136.500 56.833 147.333 56.833 L 158.167 56.833 158.167 52.583 L 158.167 48.333 151.917 48.333 L 145.667 48.333 145.667 42.417 L 145.667 36.500 150.417 36.500 L 155.167 36.500 155.167 32.417 L 155.167 28.333 150.417 28.333 L 145.667 28.333 145.667 23.250 C 145.667 20.454,145.723 18.176,145.792 18.186 C 145.860 18.197,148.523 18.197,151.708 18.186 L 157.500 18.167 157.500 13.833 L 157.500 9.500 147.000 9.500 L 136.500 9.500 136.500 33.167 M215.500 33.167 L 215.500 56.833 226.333 56.833 L 237.167 56.833 237.167 52.583 L 237.167 48.333 230.917 48.333 L 224.667 48.333 224.667 42.417 L 224.667 36.500 229.411 36.500 L 234.156 36.500 234.203 32.319 C 234.229 30.020,234.219 28.107,234.181 28.069 C 234.142 28.031,232.080 28.017,229.597 28.038 L 225.083 28.075 229.667 28.169 L 234.250 28.263 229.458 28.288 L 224.667 28.314 224.667 23.240 L 224.667 18.167 230.583 18.167 L 236.500 18.167 236.500 13.833 L 236.500 9.500 226.000 9.500 L 215.500 9.500 215.500 33.167 M278.238 27.000 C 278.245 36.625,278.306 44.500,278.374 44.500 C 278.443 44.500,278.492 45.006,278.483 45.625 C 278.464 46.936,278.810 49.500,279.006 49.500 C 279.080 49.500,279.192 49.744,279.256 50.042 C 279.584 51.572,280.107 52.586,281.118 53.645 C 281.325 53.862,281.459 54.098,281.415 54.169 C 281.371 54.240,281.504 54.342,281.709 54.397 C 281.915 54.452,282.333 54.718,282.637 54.989 C 282.942 55.260,283.523 55.608,283.929 55.763 C 284.335 55.918,284.667 56.106,284.667 56.179 C 284.667 56.253,285.004 56.364,285.417 56.425 C 285.829 56.487,286.167 56.586,286.167 56.644 C 286.167 56.744,286.712 56.800,287.965 56.830 C 288.267 56.837,288.480 56.897,288.439 56.963 C 288.303 57.183,292.320 57.014,293.917 56.733 C 294.283 56.668,294.790 56.616,295.042 56.617 C 295.294 56.618,295.500 56.550,295.500 56.466 C 295.500 56.382,295.565 56.354,295.645 56.403 C 295.725 56.453,295.959 56.347,296.165 56.168 C 296.371 55.989,296.699 55.799,296.895 55.744 C 297.480 55.582,298.071 55.266,298.286 55.000 C 298.398 54.862,298.492 54.815,298.495 54.895 C 298.501 55.064,299.996 53.513,300.266 53.057 C 300.366 52.888,300.553 52.563,300.682 52.333 C 300.811 52.104,300.958 51.879,301.008 51.833 C 301.194 51.664,301.806 49.862,301.710 49.766 C 301.656 49.711,301.692 49.667,301.790 49.667 C 301.888 49.667,301.930 49.517,301.882 49.333 C 301.834 49.150,301.869 49.000,301.959 49.000 C 302.128 49.000,302.409 47.547,302.371 46.875 C 302.359 46.669,302.403 46.500,302.470 46.500 C 302.537 46.500,302.579 46.181,302.565 45.792 C 302.550 45.402,302.529 37.077,302.519 27.292 L 302.500 9.500 297.833 9.500 C 293.345 9.500,293.167 9.512,293.167 9.819 C 293.167 9.995,293.260 10.183,293.375 10.236 C 293.542 10.314,293.542 10.353,293.375 10.431 C 293.128 10.546,293.091 11.500,293.333 11.500 C 293.583 11.500,293.544 13.452,293.292 13.569 C 293.125 13.647,293.125 13.686,293.292 13.764 C 293.406 13.817,293.500 14.074,293.500 14.333 C 293.500 14.593,293.406 14.849,293.292 14.903 C 293.125 14.981,293.125 15.019,293.292 15.097 C 293.539 15.213,293.573 15.667,293.333 15.667 C 293.242 15.667,293.167 15.892,293.167 16.167 C 293.167 16.442,293.242 16.667,293.333 16.667 C 293.425 16.667,293.500 16.817,293.500 17.000 C 293.500 17.183,293.425 17.333,293.333 17.333 C 293.237 17.333,293.167 17.861,293.167 18.583 C 293.167 19.306,293.237 19.833,293.333 19.833 C 293.425 19.833,293.500 20.021,293.500 20.250 C 293.500 20.479,293.425 20.667,293.333 20.667 C 293.242 20.667,293.167 20.817,293.167 21.000 C 293.167 21.183,293.242 21.333,293.333 21.333 C 293.425 21.333,293.500 21.446,293.500 21.583 C 293.500 21.721,293.425 21.833,293.333 21.833 C 293.091 21.833,293.128 22.623,293.375 22.723 C 293.532 22.787,293.522 22.852,293.333 22.987 C 293.111 23.147,293.111 23.187,293.333 23.346 C 293.522 23.481,293.532 23.546,293.375 23.610 C 293.128 23.710,293.092 24.333,293.333 24.333 C 293.425 24.333,293.500 24.483,293.500 24.667 C 293.500 24.850,293.425 25.000,293.333 25.000 C 293.242 25.000,293.167 25.150,293.167 25.333 C 293.167 25.517,293.242 25.667,293.333 25.667 C 293.574 25.667,293.539 26.290,293.292 26.390 C 293.125 26.457,293.125 26.476,293.292 26.487 C 293.406 26.494,293.500 26.606,293.500 26.736 C 293.500 26.866,293.406 27.010,293.292 27.057 C 293.134 27.121,293.145 27.188,293.333 27.333 C 293.522 27.478,293.532 27.546,293.375 27.610 C 293.128 27.710,293.089 29.000,293.333 29.000 C 293.425 29.000,293.500 29.188,293.500 29.417 C 293.500 29.646,293.425 29.833,293.333 29.833 C 293.242 29.833,293.167 29.983,293.167 30.167 C 293.167 30.350,293.242 30.500,293.333 30.500 C 293.573 30.500,293.539 30.956,293.292 31.057 C 293.134 31.121,293.145 31.188,293.333 31.333 C 293.522 31.478,293.532 31.546,293.375 31.610 C 293.260 31.656,293.167 31.832,293.167 32.000 C 293.167 32.168,293.260 32.349,293.375 32.403 C 293.542 32.481,293.542 32.519,293.375 32.597 C 293.128 32.712,293.092 33.500,293.333 33.500 C 293.576 33.500,293.538 34.457,293.292 34.556 C 293.125 34.624,293.125 34.643,293.292 34.654 C 293.406 34.661,293.500 34.848,293.500 35.069 C 293.500 35.291,293.406 35.510,293.292 35.556 C 293.125 35.624,293.125 35.643,293.292 35.654 C 293.406 35.661,293.500 35.848,293.500 36.069 C 293.500 36.291,293.406 36.516,293.292 36.569 C 293.125 36.647,293.125 36.686,293.292 36.764 C 293.406 36.817,293.500 37.074,293.500 37.333 C 293.500 37.593,293.406 37.843,293.292 37.890 C 293.125 37.957,293.125 37.976,293.292 37.987 C 293.537 38.002,293.578 38.833,293.333 38.833 C 293.093 38.833,293.128 39.290,293.375 39.390 C 293.532 39.454,293.522 39.522,293.333 39.667 C 293.145 39.812,293.134 39.879,293.292 39.943 C 293.430 39.999,293.500 40.412,293.500 41.167 C 293.500 41.922,293.430 42.334,293.292 42.390 C 293.125 42.457,293.125 42.476,293.292 42.487 C 293.406 42.494,293.500 42.606,293.500 42.736 C 293.500 42.866,293.406 43.010,293.292 43.057 C 293.135 43.120,293.145 43.186,293.333 43.321 C 293.556 43.480,293.556 43.518,293.333 43.664 C 293.166 43.774,293.152 43.829,293.292 43.831 C 293.406 43.832,293.500 43.946,293.500 44.083 C 293.500 44.221,293.406 44.334,293.292 44.336 C 293.150 44.338,293.164 44.395,293.333 44.515 C 293.497 44.631,293.519 44.719,293.397 44.769 C 293.275 44.820,293.239 45.217,293.293 45.923 C 293.341 46.572,293.309 47.000,293.210 47.000 C 293.120 47.000,293.082 47.188,293.126 47.417 C 293.172 47.660,293.128 47.833,293.019 47.833 C 292.917 47.833,292.833 47.908,292.833 47.999 C 292.833 48.257,292.131 49.000,291.887 49.000 C 291.766 49.000,291.667 49.075,291.667 49.167 C 291.667 49.386,289.547 49.384,289.285 49.165 C 289.174 49.072,288.877 48.842,288.625 48.653 C 288.373 48.464,288.167 48.202,288.167 48.071 C 288.167 47.940,288.093 47.833,288.002 47.833 C 287.774 47.833,287.792 49.083,287.725 28.292 L 287.664 9.500 282.945 9.500 L 278.227 9.500 278.238 27.000 M313.667 13.833 L 313.667 18.167 317.000 18.167 L 320.333 18.167 320.333 37.500 L 320.333 56.833 324.917 56.833 L 329.500 56.833 329.500 37.500 L 329.500 18.167 332.917 18.167 L 336.333 18.167 336.333 17.750 C 336.333 17.491,336.239 17.333,336.083 17.333 C 335.944 17.333,335.833 17.185,335.833 17.000 C 335.833 16.815,335.944 16.667,336.083 16.667 C 336.250 16.667,336.333 16.500,336.333 16.167 C 336.333 15.833,336.250 15.667,336.083 15.667 C 335.946 15.667,335.833 15.554,335.833 15.417 C 335.833 15.279,335.946 15.167,336.083 15.167 C 336.221 15.167,336.333 15.092,336.333 15.000 C 336.333 14.908,336.221 14.833,336.083 14.833 C 335.917 14.833,335.833 14.667,335.833 14.333 C 335.833 14.000,335.917 13.833,336.083 13.833 C 336.221 13.833,336.333 13.758,336.333 13.667 C 336.333 13.575,336.221 13.500,336.083 13.500 C 335.889 13.500,335.833 13.278,335.833 12.500 C 335.833 11.722,335.889 11.500,336.083 11.500 C 336.250 11.500,336.333 11.333,336.333 11.000 C 336.333 10.667,336.250 10.500,336.083 10.500 C 335.946 10.500,335.833 10.425,335.833 10.333 C 335.833 10.242,335.946 10.167,336.083 10.167 C 336.222 10.167,336.333 10.019,336.333 9.833 C 336.333 9.503,336.222 9.500,325.000 9.500 L 313.667 9.500 313.667 13.833 M365.833 33.167 L 365.833 56.833 370.500 56.833 L 375.167 56.833 375.167 33.167 L 375.167 9.500 370.500 9.500 L 365.833 9.500 365.833 33.167 M377.167 13.833 L 377.167 18.167 380.333 18.167 L 383.500 18.167 383.500 37.500 L 383.500 56.833 388.083 56.833 L 392.665 56.833 392.708 37.542 L 392.750 18.250 396.042 18.205 L 399.333 18.160 399.333 13.830 L 399.333 9.500 388.250 9.500 L 377.167 9.500 377.167 13.833 M11.086 10.268 C 10.863 10.432,10.833 12.551,10.833 28.474 L 10.833 46.494 11.208 46.584 C 11.415 46.634,23.921 46.654,39.000 46.629 L 66.417 46.583 66.500 28.333 L 66.583 10.083 38.961 10.083 C 18.981 10.083,11.269 10.135,11.086 10.268 M173.376 17.688 C 173.909 17.970,174.471 18.662,174.680 19.292 C 174.778 19.590,174.922 19.833,174.998 19.833 C 175.669 19.833,175.578 27.946,174.899 28.625 C 174.771 28.753,174.667 28.963,174.667 29.093 C 174.667 29.405,174.150 30.000,173.880 30.000 C 173.762 30.000,173.667 30.063,173.667 30.140 C 173.667 30.383,172.420 30.667,171.356 30.667 L 170.333 30.667 170.333 23.975 L 170.333 17.284 171.668 17.387 C 172.402 17.443,173.171 17.579,173.376 17.688 M199.580 17.495 C 199.640 17.592,199.764 17.626,199.855 17.570 C 200.287 17.303,201.521 18.171,201.768 18.917 C 201.829 19.100,201.950 19.296,202.038 19.352 C 202.818 19.855,202.818 28.407,202.037 28.993 C 201.971 29.043,201.837 29.228,201.739 29.406 C 201.641 29.583,201.419 29.808,201.246 29.906 C 201.073 30.003,200.824 30.181,200.694 30.301 C 200.564 30.421,200.357 30.481,200.234 30.434 C 200.111 30.386,199.966 30.420,199.912 30.507 C 199.858 30.595,199.293 30.667,198.657 30.667 L 197.500 30.667 197.500 24.027 L 197.500 17.388 198.485 17.352 C 199.042 17.332,199.518 17.394,199.580 17.495 M350.394 17.449 C 350.457 17.513,350.626 17.582,350.768 17.603 C 351.302 17.682,351.532 17.844,351.441 18.079 C 351.390 18.213,351.415 18.364,351.497 18.415 C 351.822 18.616,352.375 19.987,352.296 20.397 C 352.248 20.651,352.281 20.783,352.378 20.722 C 352.478 20.660,352.514 20.857,352.471 21.227 C 352.432 21.561,352.457 21.833,352.526 21.833 C 352.688 21.833,352.733 23.159,352.742 28.208 C 352.748 31.254,352.801 32.333,352.946 32.333 C 353.088 32.333,353.141 33.086,353.140 35.083 C 353.139 37.066,353.084 37.833,352.944 37.833 C 352.806 37.833,352.750 38.491,352.750 40.125 C 352.750 42.667,352.585 45.052,352.324 46.278 C 352.229 46.721,352.143 47.177,352.132 47.292 C 352.120 47.406,352.049 47.500,351.972 47.500 C 351.896 47.500,351.833 47.615,351.833 47.755 C 351.833 47.896,351.720 48.054,351.580 48.108 C 351.441 48.161,351.348 48.327,351.372 48.476 C 351.397 48.625,351.249 48.821,351.042 48.913 C 350.835 49.004,350.667 49.136,350.667 49.206 C 350.667 49.276,350.212 49.333,349.657 49.333 C 349.101 49.333,348.684 49.274,348.728 49.202 C 348.773 49.129,348.592 48.924,348.326 48.745 C 347.930 48.479,347.688 48.015,347.590 47.333 C 347.584 47.288,347.528 47.171,347.466 47.075 C 347.405 46.978,347.313 46.458,347.262 45.919 C 347.210 45.379,347.084 44.885,346.980 44.821 C 346.853 44.743,346.785 43.750,346.771 41.769 C 346.759 40.155,346.701 38.834,346.640 38.834 C 346.580 38.834,346.530 36.058,346.529 32.667 C 346.529 29.275,346.578 26.500,346.639 26.500 C 346.700 26.500,346.758 25.731,346.767 24.792 C 346.792 22.259,346.860 21.333,347.022 21.333 C 347.101 21.333,347.167 21.108,347.167 20.833 C 347.167 20.558,347.229 20.333,347.305 20.333 C 347.381 20.333,347.443 20.202,347.442 20.042 C 347.438 19.218,347.516 18.824,347.665 18.915 C 347.763 18.976,347.785 18.901,347.719 18.730 C 347.631 18.499,347.672 18.466,347.929 18.564 C 348.182 18.660,348.207 18.643,348.047 18.482 C 347.797 18.230,348.572 17.428,348.931 17.566 C 349.055 17.613,349.200 17.580,349.254 17.493 C 349.368 17.309,350.221 17.277,350.394 17.449 M28.691 18.193 C 28.961 18.482,29.144 18.820,29.096 18.943 C 29.049 19.066,29.083 19.167,29.172 19.167 C 29.261 19.167,29.333 19.359,29.333 19.593 C 29.333 19.873,29.267 19.979,29.141 19.901 C 29.024 19.828,28.994 19.855,29.064 19.968 C 29.174 20.146,28.396 21.519,28.117 21.642 C 28.043 21.674,27.797 21.995,27.569 22.356 C 27.341 22.717,27.090 22.973,27.012 22.924 C 26.933 22.875,26.824 23.004,26.770 23.209 C 26.715 23.415,26.370 23.921,26.003 24.333 C 25.637 24.746,25.293 25.215,25.240 25.375 C 25.187 25.535,25.072 25.667,24.983 25.667 C 24.895 25.667,24.667 25.929,24.478 26.250 C 24.289 26.571,24.029 26.833,23.900 26.833 C 23.772 26.833,23.667 26.946,23.667 27.083 C 23.667 27.221,23.587 27.333,23.490 27.333 C 23.393 27.333,23.353 27.397,23.401 27.475 C 23.449 27.553,23.304 27.777,23.078 27.974 C 22.585 28.402,22.562 28.599,22.981 28.823 C 23.154 28.916,23.341 29.176,23.398 29.401 C 23.454 29.627,23.647 29.857,23.825 29.914 C 24.004 29.971,24.192 30.144,24.243 30.300 C 24.294 30.456,24.570 30.846,24.855 31.167 C 25.141 31.488,25.495 31.938,25.643 32.167 C 25.790 32.396,26.043 32.681,26.205 32.801 C 26.367 32.921,26.500 33.160,26.500 33.332 C 26.500 33.504,26.654 33.693,26.843 33.753 C 27.155 33.852,27.593 34.570,27.527 34.875 C 27.512 34.944,27.556 34.991,27.625 34.980 C 27.959 34.928,28.167 35.021,28.167 35.224 C 28.167 35.347,28.317 35.584,28.500 35.750 C 28.683 35.916,28.833 36.120,28.833 36.204 C 28.833 36.288,28.954 36.478,29.102 36.625 C 29.929 37.453,28.762 39.354,27.457 39.303 C 26.707 39.274,25.996 38.712,26.390 38.461 C 26.510 38.385,26.457 38.337,26.250 38.335 C 25.917 38.331,25.167 37.421,25.167 37.022 C 25.167 36.907,25.105 36.852,25.030 36.898 C 24.955 36.944,24.787 36.824,24.655 36.630 C 24.524 36.437,24.283 36.138,24.119 35.966 C 23.955 35.795,23.873 35.571,23.936 35.468 C 24.006 35.355,23.976 35.328,23.859 35.401 C 23.753 35.466,23.666 35.459,23.666 35.385 C 23.665 35.311,23.422 34.975,23.124 34.639 C 22.221 33.618,21.855 33.167,21.929 33.167 C 21.968 33.167,21.869 33.030,21.708 32.863 C 21.548 32.696,21.192 32.273,20.917 31.923 C 20.642 31.573,20.283 31.144,20.119 30.971 C 19.955 30.797,19.873 30.571,19.936 30.468 C 20.012 30.346,19.975 30.329,19.831 30.418 C 19.669 30.518,19.639 30.478,19.720 30.269 C 19.780 30.111,19.770 30.020,19.697 30.065 C 19.623 30.110,19.362 29.933,19.115 29.672 C 18.653 29.183,18.454 27.833,18.843 27.833 C 18.940 27.833,18.973 27.758,18.917 27.667 C 18.860 27.575,18.888 27.500,18.979 27.500 C 19.070 27.500,19.192 27.349,19.251 27.164 C 19.309 26.980,19.439 26.879,19.538 26.940 C 19.639 27.003,19.671 26.975,19.610 26.876 C 19.512 26.718,19.894 26.172,20.694 25.323 C 20.847 25.160,20.928 24.984,20.875 24.931 C 20.822 24.877,20.903 24.833,21.056 24.833 C 21.208 24.833,21.333 24.734,21.333 24.612 C 21.333 24.490,21.632 24.058,21.998 23.653 C 22.363 23.248,22.663 22.871,22.664 22.816 C 22.666 22.761,22.835 22.526,23.042 22.294 C 23.248 22.062,23.642 21.589,23.917 21.242 C 24.192 20.894,24.544 20.497,24.700 20.359 C 24.856 20.220,24.937 20.033,24.881 19.942 C 24.821 19.845,24.892 19.820,25.054 19.882 C 25.224 19.947,25.314 19.910,25.290 19.786 C 25.268 19.674,25.351 19.604,25.474 19.630 C 25.597 19.656,25.664 19.581,25.621 19.464 C 25.521 19.182,25.809 18.632,25.996 18.748 C 26.077 18.797,26.190 18.688,26.249 18.503 C 26.567 17.500,27.887 17.332,28.691 18.193 M44.319 18.570 C 44.936 19.129,44.675 22.000,44.006 22.000 C 43.941 22.000,43.788 22.300,43.667 22.667 C 43.546 23.033,43.342 23.333,43.213 23.333 C 43.085 23.333,43.032 23.416,43.095 23.519 C 43.158 23.621,43.140 23.752,43.054 23.810 C 42.969 23.869,42.725 24.329,42.512 24.833 C 42.299 25.337,42.077 25.787,42.018 25.833 C 41.960 25.879,41.727 26.292,41.500 26.750 C 41.273 27.208,41.037 27.622,40.974 27.668 C 40.911 27.715,40.698 28.164,40.500 28.667 C 40.302 29.169,40.085 29.618,40.017 29.665 C 39.949 29.712,39.715 30.125,39.496 30.583 C 39.278 31.042,38.967 31.559,38.805 31.734 C 38.644 31.908,38.545 32.105,38.587 32.172 C 38.628 32.239,38.492 32.546,38.283 32.855 C 37.852 33.495,37.167 34.913,37.167 35.165 C 37.167 35.258,37.100 35.333,37.019 35.333 C 36.938 35.333,36.697 35.765,36.484 36.292 C 36.271 36.819,35.958 37.363,35.789 37.500 C 35.529 37.713,35.416 37.972,35.346 38.516 C 35.320 38.724,34.624 39.415,34.482 39.375 C 34.400 39.352,34.333 39.396,34.333 39.473 C 34.333 39.960,32.745 39.651,32.221 39.063 C 31.686 38.461,31.548 37.120,31.992 36.835 C 32.065 36.788,32.293 36.356,32.500 35.875 C 32.706 35.394,32.927 35.000,32.991 35.000 C 33.126 35.000,33.833 33.487,33.833 33.197 C 33.833 33.089,33.900 33.000,33.982 33.000 C 34.064 33.000,34.256 32.686,34.410 32.302 C 34.563 31.918,34.787 31.524,34.908 31.427 C 35.028 31.330,35.257 30.895,35.418 30.462 C 35.578 30.028,35.774 29.713,35.853 29.762 C 35.932 29.811,35.952 29.734,35.897 29.592 C 35.842 29.450,35.881 29.333,35.982 29.333 C 36.084 29.333,36.167 29.216,36.167 29.073 C 36.167 28.920,36.245 28.862,36.359 28.933 C 36.478 29.006,36.506 28.978,36.433 28.859 C 36.320 28.677,36.787 27.642,37.032 27.531 C 37.096 27.502,37.233 27.221,37.337 26.906 C 37.441 26.591,37.593 26.333,37.674 26.333 C 37.756 26.333,37.783 26.231,37.735 26.105 C 37.687 25.979,37.749 25.773,37.874 25.646 C 37.999 25.520,38.279 25.042,38.497 24.583 C 38.715 24.125,38.948 23.712,39.015 23.666 C 39.082 23.620,39.264 23.264,39.420 22.875 C 39.575 22.485,39.774 22.167,39.861 22.167 C 39.948 22.167,39.968 22.083,39.905 21.981 C 39.842 21.879,39.865 21.748,39.955 21.690 C 40.045 21.631,40.316 21.171,40.558 20.667 C 40.799 20.162,40.999 19.825,41.002 19.917 C 41.008 20.087,41.387 19.322,41.562 18.788 C 41.775 18.137,43.675 17.987,44.319 18.570 M107.585 18.336 C 107.643 18.429,107.760 18.462,107.846 18.409 C 108.165 18.212,109.190 18.749,109.523 19.287 C 109.709 19.587,109.924 19.833,110.002 19.833 C 110.184 19.833,110.556 21.614,110.438 21.922 C 110.388 22.050,110.415 22.197,110.496 22.248 C 110.655 22.346,110.700 25.812,110.545 26.062 C 110.494 26.144,110.432 26.482,110.408 26.814 C 110.341 27.699,110.147 28.500,110.000 28.500 C 109.929 28.500,109.744 28.768,109.589 29.096 C 109.399 29.495,109.225 29.661,109.061 29.598 C 108.923 29.545,108.861 29.576,108.918 29.669 C 108.974 29.759,108.940 29.833,108.843 29.833 C 108.746 29.833,108.667 29.942,108.667 30.075 C 108.667 30.410,107.643 30.665,106.296 30.666 L 105.176 30.667 105.186 24.417 L 105.196 18.167 106.338 18.167 C 106.966 18.167,107.527 18.243,107.585 18.336 M261.251 18.498 C 261.193 18.593,261.260 18.620,261.408 18.563 C 261.958 18.352,263.833 19.488,263.833 20.032 C 263.833 20.119,263.950 20.307,264.093 20.450 C 264.236 20.593,264.313 20.812,264.265 20.938 C 264.217 21.064,264.242 21.167,264.320 21.167 C 264.399 21.167,264.561 21.654,264.679 22.250 C 264.798 22.846,264.956 23.333,265.031 23.333 C 265.105 23.333,265.167 23.525,265.167 23.760 C 265.167 24.046,265.098 24.152,264.958 24.081 C 264.844 24.023,264.883 24.084,265.046 24.218 C 265.706 24.758,265.823 40.983,265.180 42.726 C 265.107 42.923,265.081 43.177,265.121 43.292 C 265.161 43.406,265.122 43.500,265.033 43.500 C 264.944 43.500,264.821 43.837,264.759 44.250 C 264.697 44.663,264.571 45.000,264.480 45.000 C 264.388 45.000,264.355 45.067,264.406 45.149 C 264.529 45.349,264.093 46.371,263.947 46.225 C 263.885 46.162,263.831 46.217,263.827 46.347 C 263.812 46.941,262.587 47.920,262.095 47.732 C 261.951 47.676,261.833 47.714,261.833 47.816 C 261.833 47.934,261.386 48.000,260.583 48.000 L 259.333 48.000 259.333 33.167 L 259.333 18.333 260.343 18.333 C 260.966 18.333,261.314 18.396,261.251 18.498 M50.447 18.957 C 50.667 19.283,51.237 19.983,51.759 20.566 C 51.947 20.777,52.068 21.046,52.029 21.164 C 51.986 21.291,52.034 21.332,52.145 21.263 C 52.249 21.199,52.333 21.208,52.333 21.284 C 52.333 21.359,52.504 21.607,52.713 21.835 C 52.922 22.063,53.269 22.500,53.484 22.805 C 53.699 23.110,54.034 23.537,54.229 23.754 C 54.424 23.972,54.771 24.382,55.000 24.667 C 55.229 24.951,55.582 25.368,55.784 25.592 C 55.986 25.816,56.118 26.000,56.077 26.000 C 56.036 26.000,56.147 26.169,56.324 26.375 C 56.502 26.581,56.808 26.938,57.005 27.167 C 57.202 27.396,57.485 27.790,57.634 28.042 C 57.783 28.294,57.949 28.500,58.003 28.500 C 58.057 28.500,58.119 28.800,58.141 29.167 C 58.162 29.533,58.119 29.833,58.043 29.833 C 57.968 29.833,57.818 30.040,57.709 30.292 C 57.427 30.947,57.138 31.358,56.708 31.714 C 56.502 31.884,56.333 32.101,56.333 32.195 C 56.333 32.289,56.127 32.570,55.875 32.818 C 55.623 33.067,55.192 33.555,54.917 33.902 C 54.642 34.249,54.294 34.668,54.144 34.831 C 53.994 34.995,53.806 35.241,53.727 35.378 C 53.381 35.977,52.448 36.987,52.315 36.906 C 52.236 36.856,52.213 36.928,52.266 37.064 C 52.321 37.209,52.182 37.467,51.930 37.686 C 51.694 37.892,51.500 38.159,51.500 38.280 C 51.500 38.401,51.400 38.500,51.278 38.500 C 51.156 38.500,50.950 38.706,50.820 38.958 C 50.255 40.054,48.986 40.347,48.083 39.590 C 47.309 38.941,47.362 37.367,48.183 36.665 C 48.495 36.398,48.685 36.177,48.605 36.173 C 48.525 36.170,48.549 36.059,48.658 35.927 C 48.768 35.795,48.949 35.721,49.060 35.764 C 49.178 35.809,49.273 35.684,49.290 35.462 C 49.305 35.254,49.509 34.931,49.742 34.744 C 49.976 34.557,50.167 34.330,50.167 34.239 C 50.167 34.148,50.317 33.946,50.500 33.789 C 50.683 33.632,50.833 33.390,50.833 33.252 C 50.833 33.025,51.031 32.926,51.375 32.980 C 51.444 32.991,51.492 32.944,51.482 32.875 C 51.434 32.546,51.742 31.989,52.101 31.754 C 52.320 31.610,52.500 31.383,52.500 31.250 C 52.500 31.117,52.680 30.890,52.899 30.746 C 53.119 30.602,53.338 30.332,53.387 30.147 C 53.435 29.961,53.631 29.768,53.821 29.718 C 54.287 29.596,54.257 29.202,53.750 28.804 C 53.521 28.623,53.333 28.377,53.333 28.257 C 53.333 28.137,53.146 27.915,52.917 27.765 C 52.688 27.615,52.500 27.356,52.500 27.190 C 52.500 27.023,52.313 26.801,52.083 26.697 C 51.854 26.593,51.667 26.398,51.667 26.266 C 51.667 26.133,51.479 25.877,51.250 25.696 C 51.021 25.516,50.833 25.297,50.833 25.210 C 50.833 25.123,50.683 24.916,50.500 24.750 C 50.317 24.584,50.167 24.297,50.167 24.113 C 50.167 23.929,50.117 23.828,50.055 23.889 C 49.890 24.055,49.333 23.493,49.333 23.160 C 49.333 23.002,49.184 22.833,49.001 22.785 C 48.818 22.737,48.621 22.560,48.564 22.391 C 48.506 22.222,48.279 21.929,48.059 21.741 C 46.792 20.655,47.758 18.395,49.413 18.573 C 49.951 18.631,50.321 18.768,50.447 18.957 M392.879 19.167 C 392.879 19.579,392.911 19.748,392.951 19.542 C 392.991 19.335,392.991 18.998,392.951 18.792 C 392.911 18.585,392.879 18.754,392.879 19.167 M392.883 28.333 C 392.883 28.837,392.915 29.044,392.953 28.792 C 392.991 28.540,392.991 28.127,392.953 27.875 C 392.915 27.623,392.883 27.829,392.883 28.333 M148.375 28.125 C 149.635 28.153,151.698 28.153,152.958 28.125 C 154.219 28.096,153.188 28.073,150.667 28.073 C 148.146 28.073,147.115 28.096,148.375 28.125 M392.875 47.417 C 392.877 47.783,392.911 47.914,392.951 47.706 C 392.991 47.499,392.990 47.199,392.948 47.040 C 392.906 46.880,392.874 47.050,392.875 47.417 " stroke="none" fill="#3c3434" fill-rule="evenodd"></path></g></svg>