<?xml version="1.0" standalone="no"?>
<!DOCTYPE svg PUBLIC "-//W3C//DTD SVG 20010904//EN"
 "http://www.w3.org/TR/2001/REC-SVG-20010904/DTD/svg10.dtd">
<svg version="1.0" xmlns="http://www.w3.org/2000/svg"
 width="2000.000000pt" height="332.000000pt" viewBox="0 0 2000.000000 332.000000"
 preserveAspectRatio="xMidYMid meet">

<g transform="translate(0.000000,332.000000) scale(0.100000,-0.100000)"
fill="#000000" stroke="none">
<path d="M270 3306 c-62 -16 -111 -48 -162 -105 -84 -93 -78 1 -78 -1302 0
-1282 -4 -1198 68 -1293 24 -33 59 -62 102 -85 l65 -36 632 -3 633 -3 0 -164
0 -165 -249 0 c-283 0 -281 1 -281 -75 0 -81 -79 -75 936 -75 605 0 912 3 925
10 15 8 19 21 19 60 0 81 5 80 -281 80 l-249 0 0 165 0 164 633 3 632 3 54 28
c73 39 135 106 161 173 20 55 20 63 18 1227 l-3 1172 -24 49 c-33 66 -91 122
-160 155 l-56 26 -1645 2 c-1279 1 -1655 -1 -1690 -11z m3118 -359 c17 -10 44
-36 60 -59 l27 -42 0 -945 0 -946 -23 -37 c-13 -20 -40 -47 -60 -60 l-37 -23
-1375 -3 c-756 -2 -1399 0 -1428 3 -39 5 -62 14 -88 37 -68 60 -64 -9 -64
1029 l0 941 22 39 c24 43 57 69 103 80 16 4 660 6 1430 6 1321 -2 1402 -3
1433 -20z"/>
<path d="M553 2823 c-10 -4 -13 -198 -13 -923 0 -828 2 -918 16 -924 9 -3 631
-6 1384 -6 1220 0 1370 2 1384 15 14 14 15 119 16 915 0 806 -1 900 -16 914
-14 14 -150 16 -1387 15 -755 0 -1378 -3 -1384 -6z m872 -418 c27 -26 33 -72
15 -105 -6 -10 -80 -105 -165 -211 -94 -117 -151 -197 -146 -203 4 -6 78 -99
164 -207 139 -173 157 -201 157 -233 0 -48 -38 -89 -78 -84 -22 2 -64 49 -226
252 -167 208 -200 254 -200 281 0 27 32 72 193 274 106 133 200 245 209 251
28 16 52 11 77 -15z m774 -21 c58 -48 74 -8 -291 -699 -87 -165 -170 -310
-184 -322 -14 -13 -36 -23 -50 -23 -35 0 -74 42 -74 80 0 39 468 934 506 968
33 29 55 28 93 -4z m290 -4 c10 -5 106 -118 212 -251 161 -202 193 -247 193
-274 0 -27 -32 -72 -193 -274 -106 -133 -202 -246 -213 -252 -14 -8 -28 -7
-49 2 -36 14 -49 37 -49 81 1 27 28 67 165 238 98 122 161 208 156 215 -4 5
-78 98 -163 205 -86 107 -157 204 -158 215 -4 40 0 56 25 80 26 27 46 31 74
15z"/>
<path d="M17400 2873 c-397 -52 -541 -319 -566 -1044 -6 -197 7 -539 26 -684
60 -443 220 -652 531 -695 205 -29 385 23 508 147 189 189 265 584 240 1252
-27 744 -184 1005 -614 1025 -49 2 -106 2 -125 -1z m141 -443 c30 -17 57 -81
76 -182 15 -80 18 -161 18 -578 0 -496 -6 -603 -42 -709 -21 -64 -58 -101
-101 -101 -46 0 -69 14 -92 60 -37 72 -51 198 -60 535 -13 491 7 833 56 927
27 52 94 75 145 48z"/>
<path d="M4780 1660 l0 -1190 240 0 240 0 0 449 0 448 118 6 c207 9 335 60
458 183 117 116 177 272 190 494 16 255 -49 492 -169 619 -78 83 -221 148
-374 170 -39 6 -214 11 -387 11 l-316 0 0 -1190z m627 729 c82 -31 116 -113
117 -279 0 -218 -70 -320 -221 -320 l-43 0 0 305 0 305 59 0 c33 0 72 -5 88
-11z"/>
<path d="M6140 1660 l0 -1190 240 0 240 0 0 1190 0 1190 -240 0 -240 0 0
-1190z"/>
<path d="M6810 1660 l0 -1190 550 0 550 0 0 225 0 225 -310 0 -310 0 2 283 3
282 233 3 232 2 0 210 0 210 -235 0 -235 0 0 245 0 245 295 0 295 0 0 225 0
225 -535 0 -535 0 0 -1190z"/>
<path d="M8050 1661 l0 -1191 235 0 235 0 0 460 0 461 57 -3 57 -3 93 -450
c51 -247 92 -453 93 -457 0 -5 115 -8 255 -8 140 0 255 3 255 8 0 4 -63 263
-140 576 -77 312 -140 572 -140 578 0 5 26 35 58 66 64 64 110 148 138 257 28
105 25 388 -5 500 -56 207 -159 312 -366 371 -51 15 -120 18 -442 22 l-383 4
0 -1191z m621 756 c71 -46 106 -179 96 -357 -8 -117 -28 -187 -64 -222 -28
-27 -92 -47 -150 -48 l-33 0 0 325 0 325 59 0 c43 0 66 -6 92 -23z"/>
<path d="M9410 1660 l0 -1190 235 0 235 0 0 460 0 461 57 -3 57 -3 88 -425
c47 -234 89 -440 93 -457 l6 -33 254 0 c140 0 255 3 255 8 0 4 -64 266 -142
584 l-142 576 60 59 c67 66 114 153 141 259 25 100 25 369 0 479 -46 197 -137
308 -302 368 -114 40 -190 47 -554 47 l-341 0 0 -1190z m621 757 c71 -46 106
-176 96 -352 -7 -121 -27 -192 -64 -227 -28 -27 -92 -47 -150 -48 l-33 0 0
325 0 325 59 0 c43 0 66 -6 92 -23z"/>
<path d="M10770 1660 l0 -1190 550 0 550 0 -2 222 -3 223 -313 3 -312 2 2 283
3 282 238 3 237 2 0 210 0 210 -237 2 -238 3 -3 243 -2 242 295 0 295 0 0 225
0 225 -530 0 -530 0 0 -1190z"/>
<path d="M12470 1661 l0 -1191 324 0 c380 0 456 9 581 69 248 118 360 358 396
847 14 190 6 530 -17 706 -35 273 -107 453 -228 574 -80 80 -153 122 -272 155
-73 21 -106 23 -431 27 l-353 4 0 -1191z m657 702 c92 -59 127 -190 144 -533
18 -365 -7 -658 -67 -791 -38 -84 -76 -109 -166 -109 l-68 0 0 730 0 730 58 0
c46 0 67 -6 99 -27z"/>
<path d="M13910 1941 c0 -915 3 -1000 37 -1121 67 -240 258 -360 572 -360 323
0 504 115 583 370 l23 75 3 973 3 972 -236 0 -235 0 -2 -942 c-3 -901 -4 -945
-22 -981 -10 -21 -32 -45 -49 -54 -38 -19 -119 -13 -147 12 -50 45 -50 52 -50
1042 l0 923 -240 0 -240 0 0 -909z"/>
<path d="M15680 2625 l0 -225 160 0 160 0 0 -965 0 -965 240 0 240 0 0 965 0
965 165 0 165 0 0 225 0 225 -565 0 -565 0 0 -225z"/>
<path d="M18280 1660 l0 -1190 245 0 245 0 0 1190 0 1190 -245 0 -245 0 0
-1190z"/>
<path d="M18842 2628 l3 -223 163 -3 162 -2 0 -965 0 -965 240 0 240 0 0 965
0 965 160 0 160 0 0 225 0 225 -565 0 -565 0 2 -222z"/>
</g>
</svg>
