<svg id="Layer_1" data-name="Layer 1" xmlns="http://www.w3.org/2000/svg" viewBox="0 0 1150.139 772.318">
  <g>
    <g>
      <g>
        <g>
          <rect x="270.508" y="757.722" width="20.186" height="13.481" fill="#292a2e" opacity="0.05"></rect>
          <rect x="64.127" y="757.722" width="20.186" height="13.481" fill="#292a2e" opacity="0.05"></rect>
        </g>
        <rect x="45.623" y="486.114" width="263.574" height="271.152" fill="#f4f4f4"></rect>
        <rect x="45.623" y="486.114" width="263.574" height="271.152" fill="#292a2e" opacity="0.03"></rect>
        <rect x="94.468" y="486.114" width="263.574" height="271.152" fill="#f4f4f4"></rect>
        <g>
          <rect x="319.352" y="757.722" width="20.186" height="13.481" fill="#292a2e" opacity="0.05"></rect>
          <rect x="112.972" y="757.722" width="20.186" height="13.481" fill="#292a2e" opacity="0.05"></rect>
        </g>
        <rect x="104.363" y="498.813" width="243.786" height="52.094" fill="#fff" opacity="0.7"></rect>
        <rect x="104.363" y="563.658" width="243.786" height="52.094" fill="#fff" opacity="0.7"></rect>
        <rect x="104.363" y="628.501" width="243.786" height="52.094" fill="#fff" opacity="0.7"></rect>
        <circle cx="226.255" cy="524.86" r="7.289" fill="#292a2e" opacity="0.05"></circle>
        <circle cx="226.255" cy="589.705" r="7.289" fill="#292a2e" opacity="0.05"></circle>
        <circle cx="226.255" cy="654.549" r="7.289" fill="#292a2e" opacity="0.05"></circle>
        <g>
          <rect x="104.363" y="694.807" width="243.786" height="52.094" fill="#fff" opacity="0.7"></rect>
          <circle cx="226.255" cy="720.854" r="7.289" fill="#292a2e" opacity="0.05"></circle>
        </g>
      </g>
      <g>
        <rect x="772.59" y="11.615" width="148.784" height="193.661" fill="#f4f4f4"></rect>
        <rect x="921.374" y="11.615" width="4.826" height="193.661" transform="translate(1847.575 216.89) rotate(180)" fill="#f4f4f4"></rect>
        <rect x="921.374" y="11.615" width="4.826" height="193.661" transform="translate(1847.575 216.89) rotate(180)" fill="#292a2e" opacity="0.05"></rect>
        <rect x="799.693" y="46.892" width="94.578" height="123.105" fill="#292a2e" opacity="0.05"></rect>
        <rect x="889.342" y="46.892" width="4.929" height="123.105" fill="#292a2e" opacity="0.03"></rect>
        <rect x="921.374" y="252.899" width="121.681" height="122.799" fill="#f4f4f4"></rect>
        <rect x="943.54" y="275.269" width="77.35" height="78.06" fill="#292a2e" opacity="0.05"></rect>
        <rect x="1043.055" y="252.899" width="4.826" height="122.799" transform="translate(2090.937 628.597) rotate(180)" fill="#f4f4f4"></rect>
        <rect x="1043.055" y="252.899" width="4.826" height="122.799" transform="translate(2090.937 628.597) rotate(180)" fill="#292a2e" opacity="0.05"></rect>
        <rect x="1015.961" y="275.269" width="4.929" height="78.06" fill="#292a2e" opacity="0.03"></rect>
      </g>
      <g>
        <rect id="c_3_c" x="25.068" width="411.982" height="411.982" fill="#f4f4f4"></rect>
        <rect id="c_3_c-2" data-name="c_3_c" x="20.346" width="4.722" height="411.982" fill="#f4f4f4"></rect>
        <rect id="c_3_c-3" data-name="c_3_c" x="20.346" width="4.722" height="411.982" fill="#292a2e" opacity="0.05"></rect>
        <polygon id="c_3_c-4" data-name="c_3_c" points="124.872 283.889 124.872 176.102 213.166 176.102 213.166 238.724 349.934 238.724 349.934 349.605 408.063 349.605 408.063 411.982 349.934 411.982 338.736 411.982 44.886 411.982 44.886 283.889 124.872 283.889" fill="#292a2e" opacity="0.05"></polygon>
        <g id="c_3_wh">
          <rect id="c_3_wh-2" data-name="c_3_wh" x="137.536" y="187.805" width="64.297" height="11.703" fill="#fffffa" opacity="0.34"></rect>
          <rect id="c_3_wh-3" data-name="c_3_wh" x="137.536" y="212.057" width="64.297" height="11.703" fill="#fffffa" opacity="0.34"></rect>
          <rect id="c_3_wh-4" data-name="c_3_wh" x="137.536" y="236.308" width="64.297" height="11.703" fill="#fffffa" opacity="0.34"></rect>
        </g>
        <g id="c_3_wh-5" data-name="c_3_wh">
          <rect id="c_3_wh-6" data-name="c_3_wh" x="56.287" y="295.25" width="11.851" height="11.703" fill="#fffffa" opacity="0.34"></rect>
          <rect id="c_3_wh-7" data-name="c_3_wh" x="56.287" y="319.502" width="11.851" height="11.703" fill="#fffffa" opacity="0.34"></rect>
          <rect id="c_3_wh-8" data-name="c_3_wh" x="56.287" y="343.753" width="11.851" height="11.703" fill="#fffffa" opacity="0.34"></rect>
          <rect id="c_3_wh-9" data-name="c_3_wh" x="78.211" y="295.25" width="11.851" height="11.703" fill="#fffffa" opacity="0.34"></rect>
          <rect id="c_3_wh-10" data-name="c_3_wh" x="78.211" y="319.502" width="11.851" height="11.703" fill="#fffffa" opacity="0.34"></rect>
          <rect id="c_3_wh-11" data-name="c_3_wh" x="78.211" y="343.753" width="11.851" height="11.703" fill="#fffffa" opacity="0.34"></rect>
          <rect id="c_3_wh-12" data-name="c_3_wh" x="99.543" y="295.25" width="11.851" height="11.703" fill="#fffffa" opacity="0.34"></rect>
          <rect id="c_3_wh-13" data-name="c_3_wh" x="99.543" y="319.502" width="11.851" height="11.703" fill="#fffffa" opacity="0.34"></rect>
          <rect id="c_3_wh-14" data-name="c_3_wh" x="99.543" y="343.753" width="11.851" height="11.703" fill="#fffffa" opacity="0.34"></rect>
        </g>
        <polygon points="25.068 203.68 107.965 203.68 107.965 0 114.821 0 114.821 203.68 338.736 203.68 338.736 0 345.592 0 345.592 203.68 437.05 203.68 437.05 210.536 345.592 210.536 345.592 411.982 338.736 411.982 338.736 210.536 114.821 210.536 114.821 411.982 107.965 411.982 107.965 210.536 25.068 210.536 25.068 203.68" fill="#fff"></polygon>
        <rect id="c_3_c-5" data-name="c_3_c" x="8.656" y="411.485" width="444.806" height="13.701" fill="#f4f4f4"></rect>
        <rect id="c_3_c-6" data-name="c_3_c" x="8.656" y="411.485" width="444.806" height="13.701" fill="#292a2e" opacity="0.1"></rect>
        <rect id="c_3_c-7" data-name="c_3_c" x="2.234" y="411.485" width="6.422" height="13.701" fill="#292a2e" opacity="0.1"></rect>
        <rect id="c_3_c-8" data-name="c_3_c" x="2.234" y="411.485" width="6.422" height="13.701" fill="#292a2e" opacity="0.1"></rect>
      </g>
    </g>
    <g>
      <rect x="258.24" y="-69.081" width="633.66" height="907.426" rx="73.035" transform="translate(190.437 959.702) rotate(-90)" fill="#292a2e"></rect>
      <path d="M1004.27,141.062V628.2a50.153,50.153,0,0,1-50.151,50.149H194.31A50.159,50.159,0,0,1,144.16,628.2V504.943h15.47a26.927,26.927,0,0,0,26.93-26.921V291.242a26.926,26.926,0,0,0-26.93-26.92H144.16V141.062a50.159,50.159,0,0,1,50.15-50.15H954.119A50.153,50.153,0,0,1,1004.27,141.062Z" fill="#fff"></path>
      <path d="M40.334,358.721h240.62a0,0,0,0,1,0,0v24.9a26.924,26.924,0,0,1-26.924,26.924H67.258a26.924,26.924,0,0,1-26.924-26.924v-24.9a0,0,0,0,1,0,0Z" transform="translate(-223.988 545.276) rotate(-90)" fill="#292a2e"></path>
    </g>
    <g>
      <path d="M1063.08,639.884a1,1,0,0,1-.707-.293c-1.409-1.41-3.706-27.262-9.892-104.234-2.531-31.488-4.921-61.229-6.666-79.3-.125-1.291-.625-1.442-.79-1.491-2.393-.724-9.652,5.007-13.708,10.022a1,1,0,1,1-1.554-1.258c2.68-3.316,11.417-12.008,15.838-10.68.89.268,1.995,1.042,2.2,3.214,1.746,18.091,4.136,47.841,6.669,79.337,3.759,46.775,8.018,99.766,9.418,103.1a1,1,0,0,1-.813,1.584Z" fill="#494949"></path>
      <ellipse cx="1025.484" cy="467.07" rx="38.507" ry="28.398" transform="translate(-66.796 744.012) rotate(-38.715)" fill="#83C5BE"></ellipse>
      <ellipse cx="1025.484" cy="467.07" rx="38.507" ry="28.398" transform="translate(-66.796 744.012) rotate(-38.715)" fill="#fff" opacity="0.2"></ellipse>
      <path d="M1000.091,494.263a.5.5,0,0,1-.385-.82L1047,436.414a.5.5,0,0,1,.77.639l-47.291,57.029A.5.5,0,0,1,1000.091,494.263Z" fill="#fff"></path>
      <path d="M1073.4,627.658a1,1,0,0,1-.945-1.329l17.764-51.087a9.5,9.5,0,0,1,15.528-3.748l9.392,8.972a1,1,0,0,1-1.381,1.446l-9.392-8.971A7.5,7.5,0,0,0,1092.1,575.9l-17.764,51.087A1,1,0,0,1,1073.4,627.658Z" fill="#494949"></path>
      <ellipse cx="1117.474" cy="578.552" rx="28.398" ry="38.507" transform="translate(-117.803 818.47) rotate(-38.363)" fill="#83C5BE"></ellipse>
      <path d="M1055.01,636.626a1,1,0,0,1-.972-.768l-29.81-124.644a4.75,4.75,0,0,0-8.212-2l-9.19,10.619a1,1,0,1,1-1.511-1.309L1014.5,507.9a6.75,6.75,0,0,1,11.669,2.847l29.81,124.644a1,1,0,0,1-.74,1.2A.983.983,0,0,1,1055.01,636.626Z" fill="#494949"></path>
      <ellipse cx="1016.029" cy="542.679" rx="38.507" ry="28.398" transform="matrix(0.17, -0.985, 0.985, 0.17, 308.162, 1451.382)" fill="#83C5BE"></ellipse>
      <path d="M1063.081,639.884a1.029,1.029,0,0,1-.123-.008,1,1,0,0,1-.87-1.114L1081.125,484.2a8.806,8.806,0,0,1,15.341-4.752l21.758,24.643a1,1,0,0,1-1.5,1.323l-21.758-24.642a6.806,6.806,0,0,0-11.857,3.672l-19.037,154.558A1,1,0,0,1,1063.081,639.884Z" fill="#494949"></path>
      <ellipse cx="1106.843" cy="499.151" rx="28.398" ry="38.507" transform="translate(134.314 1226.09) rotate(-61.051)" fill="#83C5BE"></ellipse>
      <ellipse cx="1117.474" cy="578.552" rx="28.398" ry="38.507" transform="translate(-117.803 818.47) rotate(-38.363)" fill="#fff" opacity="0.2"></ellipse>
      <ellipse cx="1016.029" cy="542.679" rx="38.507" ry="28.398" transform="matrix(0.17, -0.985, 0.985, 0.17, 308.162, 1451.382)" fill="#fff" opacity="0.5"></ellipse>
      <ellipse cx="1106.843" cy="499.151" rx="28.398" ry="38.507" transform="translate(134.314 1226.09) rotate(-61.051)" fill="#fff" opacity="0.5"></ellipse>
      <polygon points="1087.429 771.025 1038.732 771.025 1030.663 615.221 1095.498 615.221 1087.429 771.025" fill="#292a2e"></polygon>
      <polygon points="1087.429 771.025 1038.732 771.025 1030.663 615.221 1095.498 615.221 1087.429 771.025" fill="#fff" opacity="0.3"></polygon>
      <path d="M1141.373,609.245a.5.5,0,0,1-.391-.189l-47.8-60.387a.5.5,0,0,1,.783-.621l47.8,60.386a.5.5,0,0,1-.392.811Z" fill="#fff"></path>
      <path d="M1137.36,522.628a.5.5,0,0,1-.295-.1L1075.9,477.869a.5.5,0,1,1,.59-.808l61.166,44.663a.5.5,0,0,1-.3.9Z" fill="#fff"></path>
      <path d="M1006.985,579.976a.469.469,0,0,1-.128-.017.5.5,0,0,1-.355-.612l19.472-72.953a.5.5,0,1,1,.966.258l-19.471,72.953A.5.5,0,0,1,1006.985,579.976Z" fill="#fff"></path>
    </g>
    <g>
      <g>
        <path d="M323.62,479.112v199.24H194.31A50.132,50.132,0,0,1,144.16,628.2V504.943h15.47A26.892,26.892,0,0,0,183.539,490.4a26.507,26.507,0,0,0,3-11.29Z" fill="#f4f4f4"></path>
        <path d="M323.62,479.112v199.24H194.31A50.132,50.132,0,0,1,144.16,628.2V504.943h15.47A26.892,26.892,0,0,0,183.539,490.4a26.507,26.507,0,0,0,3-11.29Z" fill="#292a2e" opacity="0.03"></path>
        <path d="M367.039,479.112v199.24H194.31A50.132,50.132,0,0,1,144.16,628.2V504.943h15.47A26.892,26.892,0,0,0,183.539,490.4a26.507,26.507,0,0,0,3-11.29Z" fill="#f4f4f4"></path>
        <path d="M358.249,490.4v46.31H144.16V504.943h15.47A26.892,26.892,0,0,0,183.539,490.4Z" fill="#fff" opacity="0.7"></path>
        <rect x="144.16" y="548.042" width="214.09" height="46.31" fill="#fff" opacity="0.7"></rect>
        <path d="M358.249,605.693V652H150.16a49.848,49.848,0,0,1-6-23.8v-22.51Z" fill="#fff" opacity="0.7"></path>
        <circle cx="249.889" cy="513.558" r="6.48" fill="#292a2e" opacity="0.05"></circle>
        <circle cx="249.889" cy="571.202" r="6.48" fill="#292a2e" opacity="0.05"></circle>
        <circle cx="249.889" cy="628.846" r="6.48" fill="#292a2e" opacity="0.05"></circle>
        <path d="M358.249,664.632v13.72H194.31a50.006,50.006,0,0,1-34.46-13.72Z" fill="#fff" opacity="0.7"></path>
      </g>
      <g>
        <rect x="772.59" y="90.912" width="157.1" height="115.01" fill="#f4f4f4"></rect>
        <rect x="929.69" y="90.912" width="5.1" height="115.01" fill="#f4f4f4"></rect>
        <rect x="929.69" y="90.912" width="5.1" height="115.01" fill="#292a2e" opacity="0.05"></rect>
        <rect x="801.21" y="90.912" width="99.86" height="77.76" fill="#292a2e" opacity="0.05"></rect>
        <rect x="895.869" y="90.912" width="5.2" height="77.76" fill="#292a2e" opacity="0.03"></rect>
        <rect x="929.69" y="256.212" width="74.58" height="129.66" fill="#f4f4f4"></rect>
        <rect x="953.1" y="279.832" width="51.17" height="82.42" fill="#292a2e" opacity="0.05"></rect>
      </g>
      <g>
        <path d="M451.46,90.912v334.72H186.56V291.242a26.926,26.926,0,0,0-26.93-26.92H144.16V141.062a50.159,50.159,0,0,1,50.15-50.15Z" fill="#f4f4f4"></path>
        <path d="M421.509,361.192v64.44H186.56V291.242a26.926,26.926,0,0,0-26.93-26.92H144.16v-82.38h76v64.69h141.3v114.56Z" fill="#292a2e" opacity="0.05"></path>
        <g id="c_3_wh-15" data-name="c_3_wh">
          <rect x="144.16" y="194.032" width="64.29" height="12.09" fill="#fffffa" opacity="0.34"></rect>
          <rect x="144.16" y="219.082" width="64.29" height="12.09" fill="#fffffa" opacity="0.34"></rect>
          <rect x="144.16" y="244.142" width="64.29" height="12.09" fill="#fffffa" opacity="0.34"></rect>
        </g>
        <polygon points="451.46 210.432 451.46 217.512 356.969 217.512 356.969 425.632 349.89 425.632 349.89 217.512 144.16 217.512 144.16 210.432 349.89 210.432 349.89 90.912 356.969 90.912 356.969 210.432 451.46 210.432" fill="#fff"></polygon>
        <rect x="186.56" y="425.122" width="281.86" height="14.16" fill="#f4f4f4"></rect>
        <rect x="186.56" y="425.122" width="281.86" height="14.16" fill="#292a2e" opacity="0.1"></rect>
      </g>
    </g>
    <path d="M1004.27,141.062V628.2a50.153,50.153,0,0,1-50.151,50.149H194.31A50.159,50.159,0,0,1,144.16,628.2V504.943h15.47a26.927,26.927,0,0,0,26.93-26.921V291.242a26.926,26.926,0,0,0-26.93-26.92H144.16V141.062a50.159,50.159,0,0,1,50.15-50.15H954.119A50.153,50.153,0,0,1,1004.27,141.062Z" fill="none"></path>
    <g>
      <g>
        <polyline points="612.356 385.526 399.553 486.859 398.981 285.173 612.356 183.269 612.356 385.526" fill="#006D77"></polyline>
        <g opacity="0.58">
          <polyline points="612.356 385.526 399.553 486.859 398.981 285.173 612.356 183.269 612.356 385.526" fill="#fff"></polyline>
        </g>
        <polyline points="612.356 385.524 750.586 486.86 751.158 285.175 612.356 183.269 612.356 385.524" fill="#006D77"></polyline>
        <g opacity="0.88">
          <polyline points="612.356 385.524 750.586 486.86 751.158 285.175 612.356 183.269 612.356 385.524" fill="#fff"></polyline>
        </g>
        <path d="M539.277,591.157l-141.8-104.11,0-.762.58-204.634L539.277,385.177ZM400.483,485.532l135.794,99.7V386.7L401.045,287.558Z" fill="#292a2e"></path>
        <path d="M536.277,590.573V384.992l215.8-102.762.582,205-.856.409Zm3-203.687v198.93L749.655,485.343l-.562-198.368Z" fill="#292a2e"></path>
        <path d="M398.06,489.231l-.581-205L613.857,180.89V386.473Zm2.424-203.113.562,198.368,209.811-99.908V185.647Z" fill="#292a2e"></path>
        <path d="M752.077,489.814l-141.22-103.53V180.307l141.8,104.11,0,.762Zm-138.22-105.05L749.1,483.907l.561-197.974-135.8-99.7Z" fill="#292a2e"></path>
        <circle cx="537.777" cy="385.937" r="7.5" fill="#006D77"></circle>
        <circle cx="612.356" cy="183.269" r="7.5" fill="#006D77"></circle>
        <circle cx="537.777" cy="585.996" r="7.5" fill="#006D77"></circle>
        <circle cx="751.158" cy="284.603" r="7.5" fill="#006D77"></circle>
        <circle cx="398.981" cy="284.603" r="7.5" fill="#006D77"></circle>
        <circle cx="751.158" cy="488.885" r="7.5" fill="#006D77"></circle>
        <circle cx="398.981" cy="488.885" r="7.5" fill="#006D77"></circle>
        <circle cx="612.356" cy="385.937" r="7.5" fill="#006D77"></circle>
      </g>
      <path d="M634.781,250.419,620.22,274.446a2.492,2.492,0,0,0,.722,3.355l24.049,16.533a2.5,2.5,0,1,0,2.832-4.12l-19.408-13.343c9.607-2.9,33.486-6.855,55.765,15.424,28.083,28.083,12.533,60.534,11.846,61.925a2.5,2.5,0,0,0,4.476,2.227c.182-.367,17.9-37-12.787-67.688-23.365-23.365-49.1-19.831-60.167-16.759l11.509-18.99a2.5,2.5,0,0,0-4.276-2.591Z" fill="#83C5BE"></path>
    </g>
    <g>
      <g id="b_4_ha">
        <path d="M672.651,267.321l13.609,10.907-1.122-2.109a3.044,3.044,0,0,1,1.157-3.992,2.933,2.933,0,0,1,4.055,1.3l8.77,18.055a9.714,9.714,0,0,1-4.275,12.872h0a14.769,14.769,0,0,1-16.4-1.908l-10.1-8.694a3,3,0,0,1-.735-3.729,2.932,2.932,0,0,1,3.167-1.433.253.253,0,0,1,.282-.237l-1.869-1.6a3.041,3.041,0,0,1-.664-3.941,2.931,2.931,0,0,1,3.809-.986.29.29,0,0,1,.011-.092l-.766-.658a3.167,3.167,0,0,1-.752-3.7,2.937,2.937,0,0,1,3.928-1.2l.032-.047-5.718-4.582a2.767,2.767,0,0,1-.333-4A2.871,2.871,0,0,1,672.651,267.321Z" fill="#E98862"></path>
        <path id="b_4_ha_sh" d="M674.7,276.5a.305.305,0,0,0,.064.071l5.606,4.386a.275.275,0,1,0,.339-.434l-5.605-4.386a.276.276,0,0,0-.4.363Z" fill="#0c0c0c" opacity="0.2"></path>
        <path id="b_4_ha_sh-2" data-name="b_4_ha_sh" d="M672.367,281.941a.274.274,0,0,0,.062.07l4.38,3.482a.275.275,0,0,0,.343-.431l-4.379-3.482a.276.276,0,0,0-.406.361Z" fill="#0c0c0c" opacity="0.2"></path>
        <path id="b_4_ha_sh-3" data-name="b_4_ha_sh" d="M670.81,288.766a.265.265,0,0,0,.068.074l2.106,1.6a.276.276,0,0,0,.333-.439l-2.107-1.6a.275.275,0,0,0-.4.365Z" fill="#0c0c0c" opacity="0.2"></path>
      </g>
      <path d="M830.241,345.813l-71.566,27.318a19.338,19.338,0,0,1-20.265-3.955l-63.543-59.9L701.4,281.133l54.658,51.526,60.184-22.9Z" fill="#006D77"></path>
      <g>
        <path d="M902.883,739.037s-3.233,16.762-18.928,17.7-12.29,13.437-12.29,13.437h59.974V740.206Z" fill="#006D77"></path>
        <path d="M921.382,433.27s-.188-5.039-.149,6.391c.149,42.635.889,91.333,2.7,119.831,2.905,45.811,10.355,190.242,10.355,190.242l-39.409-.331-38.2-317.866Z" fill="#262626"></path>
        <path d="M876.878,483.546s-1.633,30.939-1.936,38.2c-.7,16.8-.944,34.191-.944,53.91l-6.212-51.695S872.332,507.763,876.878,483.546Z" fill="#0a0a0a"></path>
        <path d="M832.723,739.037s-3.233,16.762-18.927,17.7-12.291,13.437-12.291,13.437h59.974V740.206Z" fill="#006D77"></path>
        <path d="M813.642,436.58s-3.491,145.715-2.98,152.837l14.656,159.214,38.759.716L860.3,583.659s2.664-45.705,13.707-88.145a329.015,329.015,0,0,0,10.147-66.562h0Z" fill="#262626"></path>
        <path d="M921.81,433.265l.129.007S921.846,430.787,921.81,433.265Z" fill="#333"></path>
        <path d="M808.094,355.7c.813,9.548,4.766,69.12,5.548,80.881h107.7c.609-10.607,3.341-56.992,5.648-77.735,2.2-19.794,6.523-29.7,3.355-35.556-5.175-9.564-19.317-15.091-28.96-16.4-5.888-.8-14.744-1.368-14.744-1.368s-.75,15.169-18.631,16.013c-24.34,1.149-22.714-16.013-22.835-16.013-3.943,0-26.9,1.854-31.98,5.762C804.313,318.123,806.369,335.464,808.094,355.7Z" fill="#006D77"></path>
        <path d="M808.192,354.184a.358.358,0,0,1-.357-.338l-.869-15.162a.358.358,0,1,1,.715-.041l.869,15.162a.358.358,0,0,1-.337.378Z" fill="#0c0c0c"></path>
      </g>
      <path d="M944.622,435.956a19.661,19.661,0,0,0,18.445-26.464c-1.112-3.017-27.2-72.089-32.162-84.888l-36.769,14.9c2.792,7.2,12.908,34.472,21.035,56.445l-13.5-1.468-4.25,39.094,45.074,2.268A19.773,19.773,0,0,0,944.622,435.956Z" fill="#006D77"></path>
      <g>
        <path id="h_3_sk" d="M835.3,306.072c.113-.015,3.221,11.68,27.472,9.86,16.79-1.258,20.884-12.686,21.268-12.686-1.81-.385-4.749-.784-5.553-1.214a9.93,9.93,0,0,1-5.539-6.86c-.758-2.9-1.145-14.075-1.145-19.68L845.967,281.3c.36,6.323,2.881,20.982-5.953,23.576C838.544,305.3,836.961,305.7,835.3,306.072Z" fill="#E98862"></path>
        <path d="M846.861,293.729c10.185.8,23.268-3.5,25.753-17.085l2.243-12.261c2.485-13.588-2.637-25.909-15.431-28.249h0c-12.794-2.34-24.371,6.927-26.856,20.515l-.993,5.428C830.622,267.291,828.689,292.3,846.861,293.729Z" fill="#E98862"></path>
        <path d="M837.418,281.253c1.828-9.186,2.666-15.314,2.569-21.78-2.575-4.517-1.9-9.7-1.313-11.941a9.922,9.922,0,0,1-5.954,1.527s4.258-17.091,18.732-21.689c2.662-1.036,9.457-2.345,18.481-1.107,7.674,1.052,26.592,6.791,29.295,28.089h0v.012c.089.706,1.9,20.33,5.527,29.745,4.868,12.657,11.7,16.589,11.529,31.192-.223,18.784-34.755,21.284-55.584,19.879s-32.456-8.254-32.606-21.791C827.927,298.222,833.76,299.631,837.418,281.253Z" fill="#0a0a0a"></path>
      </g>
      <rect x="883.984" y="397.561" width="77.369" height="0.716" transform="translate(493.434 1306.442) rotate(-88.04)" fill="#0c0c0c"></rect>
    </g>
    <path d="M1,772.318H1149.139a1,1,0,0,0,0-2H1a1,1,0,0,0,0,2Z" fill="#262626"></path>
  </g>
</svg>