<svg id="Layer_3" data-name="Layer 3" xmlns="http://www.w3.org/2000/svg" viewBox="0 0 1106.198 1016.323">
  <g>
    <path d="M560.531,1010.408a1,1,0,0,1,0-2c3.993,0,8.037-.052,12.021-.151h.025a1,1,0,0,1,.024,2C568.6,1010.355,564.541,1010.407,560.531,1010.408Zm-12.041-.143h-.025c-4.013-.1-8.071-.245-12.06-.439a1,1,0,0,1-.95-1.048.983.983,0,0,1,1.048-.949c3.972.193,8.013.34,12.011.436a1,1,0,0,1-.024,2Zm36.121-.455a1,1,0,0,1-.049-2c3.981-.2,8.017-.446,12-.741a1,1,0,1,1,.149,1.994c-4,.3-8.049.547-12.045.745Zm-60.177-.717-.074,0c-3.985-.293-8.03-.641-12.023-1.034a1,1,0,1,1,.2-1.99c3.978.391,8.006.737,11.975,1.029a1,1,0,0,1-.073,2Zm84.2-1.066a1,1,0,0,1-.1-2c3.964-.393,7.983-.843,11.943-1.335a1,1,0,1,1,.247,1.984c-3.977.5-8.012.946-11.993,1.341C608.7,1008.025,608.663,1008.027,608.63,1008.027Zm-108.164-1.3a1.043,1.043,0,0,1-.124-.007c-3.972-.491-8-1.04-11.957-1.63a1,1,0,1,1,.3-1.978c3.945.588,7.952,1.134,11.907,1.623a1,1,0,0,1-.121,1.992Zm132.063-1.679a1,1,0,0,1-.147-1.989c3.949-.592,7.94-1.241,11.862-1.929a1,1,0,0,1,.346,1.97c-3.939.691-7.947,1.343-11.911,1.937A.964.964,0,0,1,632.529,1005.053Zm-155.885-1.871a1.008,1.008,0,0,1-.172-.015c-3.941-.689-7.932-1.438-11.862-2.226A1,1,0,1,1,465,998.98c3.914.785,7.888,1.531,11.813,2.217a1,1,0,0,1-.172,1.985Zm179.608-2.291a1,1,0,0,1-.2-1.981c3.922-.79,7.876-1.639,11.75-2.52a1,1,0,1,1,.443,1.95c-3.89.886-7.859,1.737-11.8,2.531A1.031,1.031,0,0,1,656.252,1000.891ZM453.03,998.444a.994.994,0,0,1-.222-.025c-3.9-.885-7.85-1.833-11.735-2.818a1,1,0,1,1,.491-1.938c3.869.98,7.8,1.924,11.686,2.806a1,1,0,0,1-.22,1.975Zm226.705-2.9a1,1,0,0,1-.245-1.969c3.859-.981,7.765-2.027,11.61-3.107a1,1,0,1,1,.541,1.925c-3.861,1.085-7.783,2.135-11.659,3.12A1,1,0,0,1,679.735,995.546Zm-250.053-3.018a1.009,1.009,0,0,1-.27-.037c-3.86-1.082-7.755-2.227-11.58-3.4a1,1,0,0,1,.588-1.912c3.809,1.172,7.688,2.312,11.532,3.39a1,1,0,0,1-.27,1.963Zm273.242-3.5a1,1,0,0,1-.295-1.956c3.82-1.179,7.669-2.419,11.439-3.686a1,1,0,1,1,.637,1.9c-3.786,1.273-7.65,2.519-11.486,3.7A.984.984,0,0,1,702.924,989.029Zm-296.306-3.6a1.014,1.014,0,0,1-.318-.053c-3.814-1.279-7.66-2.624-11.432-4a1,1,0,0,1,.684-1.88c3.756,1.366,7.586,2.705,11.384,3.979a1,1,0,0,1-.318,1.949Zm319.135-4.079a1,1,0,0,1-.343-1.94c3.75-1.366,7.532-2.8,11.24-4.256a1,1,0,1,1,.732,1.861c-3.724,1.464-7.522,2.9-11.286,4.274A1.01,1.01,0,0,1,725.753,981.354Zm-341.844-4.181a.981.981,0,0,1-.365-.07c-3.731-1.464-7.5-3-11.21-4.564a1,1,0,1,1,.777-1.842c3.692,1.557,7.448,3.087,11.164,4.545a1,1,0,0,1-.366,1.931Zm364.22-4.613a1,1,0,0,1-.389-1.921c3.674-1.553,7.367-3.167,10.976-4.8a1,1,0,0,1,.824,1.822c-3.624,1.639-7.332,3.259-11.022,4.818A.991.991,0,0,1,748.129,972.56Zm-386.473-4.774a.984.984,0,0,1-.411-.09c-3.659-1.653-7.347-3.375-10.962-5.119a1,1,0,0,1,.869-1.8c3.6,1.737,7.273,3.452,10.916,5.1a1,1,0,0,1-.412,1.912Zm408.353-5.115a1,1,0,0,1-.436-1.9c3.584-1.73,7.193-3.527,10.729-5.342a1,1,0,0,1,.914,1.779c-3.55,1.823-7.174,3.628-10.774,5.364A.986.986,0,0,1,770.009,962.671Zm-430.1-5.374a.989.989,0,0,1-.456-.111c-3.571-1.834-7.167-3.739-10.686-5.66a1,1,0,1,1,.958-1.756c3.5,1.914,7.085,3.81,10.642,5.637a1,1,0,0,1-.458,1.89Zm451.465-5.6a1,1,0,0,1-.48-1.878c3.5-1.907,7.013-3.884,10.454-5.874a1,1,0,0,1,1,1.732c-3.456,2-6.988,3.983-10.5,5.9A.987.987,0,0,1,791.377,951.7Zm-472.646-5.96a.989.989,0,0,1-.5-.135c-3.469-2.007-6.964-4.088-10.385-6.185a1,1,0,1,1,1.045-1.705c3.407,2.088,6.887,4.16,10.342,6.159a1,1,0,0,1-.5,1.866Zm493.452-6.072a1,1,0,0,1-.524-1.853c3.393-2.076,6.809-4.226,10.154-6.389A1,1,0,1,1,822.9,933.1c-3.359,2.172-6.789,4.331-10.2,6.416A1,1,0,0,1,812.183,939.665Zm-514.021-6.527a.99.99,0,0,1-.542-.161c-3.358-2.174-6.744-4.426-10.061-6.692a1,1,0,0,1,1.128-1.652c3.3,2.258,6.675,4.5,10.019,6.665a1,1,0,0,1-.544,1.84Zm534.211-6.529a1,1,0,0,1-.565-1.826c3.292-2.247,6.6-4.565,9.829-6.889a1,1,0,0,1,1.168,1.623c-3.244,2.334-6.564,4.661-9.87,6.917A.981.981,0,0,1,832.373,926.609Zm-554.12-7.075a1,1,0,0,1-.583-.188c-3.259-2.349-6.527-4.765-9.712-7.183a1,1,0,1,1,1.209-1.593c3.172,2.408,6.426,4.814,9.672,7.153a1,1,0,0,1-.586,1.811ZM851.9,912.559a1,1,0,0,1-.605-1.8c3.176-2.408,6.365-4.888,9.478-7.371a1,1,0,1,1,1.248,1.564c-3.127,2.494-6.329,4.983-9.518,7.4A1,1,0,0,1,851.9,912.559Zm-592.844-7.6a.992.992,0,0,1-.624-.219c-3.127-2.5-6.269-5.073-9.34-7.653a1,1,0,0,1,1.286-1.531c3.058,2.569,6.188,5.134,9.3,7.622a1,1,0,0,1-.624,1.781Zm611.655-7.409a1,1,0,0,1-.644-1.766c3.042-2.553,6.106-5.188,9.1-7.834a1,1,0,0,1,1.323,1.5c-3.012,2.656-6.088,5.3-9.143,7.866A1,1,0,0,1,870.709,897.553Zm-630.1-8.093a1,1,0,0,1-.661-.251c-3-2.655-6.015-5.381-8.947-8.1a1,1,0,1,1,1.362-1.465c2.919,2.711,5.917,5.426,8.909,8.07a1,1,0,0,1-.663,1.75Zm648.154-7.833a1,1,0,0,1-.68-1.733c2.93-2.717,5.86-5.5,8.708-8.278a1,1,0,0,1,1.4,1.432c-2.86,2.787-5.8,5.584-8.745,8.313A1,1,0,0,1,888.76,881.627Zm-665.8-8.559a.994.994,0,0,1-.7-.284c-2.862-2.793-5.732-5.665-8.531-8.535a1,1,0,0,1,1.432-1.4c2.787,2.858,5.646,5.718,8.5,8.5a1,1,0,0,1-.7,1.716Zm683.051-8.246a1,1,0,0,1-.716-1.7c2.793-2.859,5.582-5.788,8.291-8.7a1,1,0,0,1,1.465,1.362c-2.72,2.926-5.521,5.866-8.324,8.738A1,1,0,0,1,906.007,864.822Zm-699.862-8.994a1,1,0,0,1-.733-.32c-2.722-2.933-5.445-5.943-8.095-8.943a1,1,0,1,1,1.5-1.324c2.639,2.988,5.351,5.985,8.062,8.907a1,1,0,0,1-.733,1.68Zm716.259-8.65a1,1,0,0,1-.749-1.663c2.646-2.992,5.288-6.056,7.852-9.105a1,1,0,0,1,1.531,1.287c-2.575,3.062-5.228,6.138-7.885,9.143A1,1,0,0,1,922.4,847.178Zm-732.19-9.4a1,1,0,0,1-.766-.357c-2.574-3.065-5.144-6.2-7.64-9.33a1,1,0,1,1,1.563-1.248c2.485,3.114,5.045,6.24,7.608,9.292a1,1,0,0,1-.765,1.643Zm747.7-9.047a1,1,0,0,1-.78-1.624c2.5-3.121,4.982-6.313,7.393-9.487a1,1,0,1,1,1.592,1.21c-2.42,3.186-4.918,6.392-7.423,9.526A1,1,0,0,1,937.911,828.735ZM175.2,818.976a1,1,0,0,1-.8-.4c-2.423-3.193-4.833-6.455-7.165-9.693a1,1,0,1,1,1.623-1.169c2.322,3.225,4.723,6.473,7.135,9.654a1,1,0,0,1-.8,1.6ZM952.49,809.54a1,1,0,0,1-.81-1.585c2.33-3.23,4.656-6.542,6.915-9.845a1,1,0,1,1,1.65,1.129c-2.268,3.316-4.6,6.643-6.942,9.886A1,1,0,0,1,952.49,809.54ZM161.144,799.456a1,1,0,0,1-.826-.436c-2.253-3.3-4.5-6.674-6.673-10.033a1,1,0,0,1,1.679-1.087c2.166,3.346,4.4,6.707,6.645,9.992a1,1,0,0,1-.825,1.564ZM966.1,789.637a1,1,0,0,1-.837-1.544c2.169-3.349,4.329-6.775,6.417-10.181a1,1,0,0,1,1.7,1.045c-2.1,3.42-4.265,6.86-6.445,10.224A1,1,0,0,1,966.1,789.637ZM148.08,779.27a1,1,0,0,1-.854-.478c-2.091-3.415-4.165-6.9-6.163-10.348a1,1,0,0,1,1.732-1c1.989,3.437,4.054,6.9,6.137,10.3a1,1,0,0,1-.331,1.375A.984.984,0,0,1,148.08,779.27Zm830.627-10.2a1,1,0,0,1-.864-1.5c1.994-3.442,3.98-6.972,5.9-10.493a1,1,0,0,1,1.756.959c-1.932,3.535-3.927,7.081-5.929,10.537A1,1,0,0,1,978.707,769.073Zm-842.666-10.6a1,1,0,0,1-.879-.521c-1.911-3.5-3.807-7.079-5.636-10.637a1,1,0,0,1,1.779-.914c1.821,3.543,3.71,7.107,5.612,10.593a1,1,0,0,1-.876,1.479ZM990.275,747.9a1,1,0,0,1-.888-1.457c1.83-3.559,3.637-7.186,5.373-10.78a1,1,0,1,1,1.8.869c-1.742,3.609-3.557,7.251-5.394,10.825A1,1,0,0,1,990.275,747.9ZM125.059,737.1a1,1,0,0,1-.9-.565c-1.733-3.589-3.448-7.256-5.1-10.9a1,1,0,1,1,1.822-.824c1.642,3.628,3.35,7.28,5.075,10.854a1,1,0,0,1-.9,1.435Zm875.714-10.947a1,1,0,0,1-.91-1.412c1.649-3.649,3.273-7.364,4.826-11.042a1,1,0,1,1,1.842.778c-1.559,3.693-3.189,7.424-4.846,11.088A1,1,0,0,1,1000.773,726.157ZM115.162,715.23a1,1,0,0,1-.922-.611c-1.55-3.666-3.078-7.413-4.543-11.134a1,1,0,0,1,1.861-.733c1.458,3.706,2.981,7.437,4.524,11.089a1,1,0,0,1-.92,1.389Zm895.007-11.323a.978.978,0,0,1-.365-.07,1,1,0,0,1-.566-1.3c1.464-3.728,2.9-7.522,4.268-11.276a1,1,0,0,1,1.879.685c-1.373,3.769-2.815,7.579-4.285,11.322A1,1,0,0,1,1010.169,703.907Zm-903.81-11.05a1,1,0,0,1-.94-.658c-1.374-3.768-2.718-7.6-3.993-11.39a1,1,0,0,1,1.9-.637c1.27,3.773,2.608,7.589,3.976,11.342a1,1,0,0,1-.939,1.343ZM1018.436,681.2a1.014,1.014,0,0,1-.318-.053,1,1,0,0,1-.63-1.266c1.272-3.785,2.515-7.649,3.695-11.483a1,1,0,0,1,1.913.589c-1.186,3.85-2.435,7.729-3.711,11.53A1,1,0,0,1,1018.436,681.2ZM98.676,670.029a1,1,0,0,1-.955-.705c-1.179-3.819-2.329-7.713-3.416-11.576a1,1,0,0,1,1.925-.542c1.083,3.847,2.227,7.725,3.4,11.528a1,1,0,0,1-.661,1.25A.979.979,0,0,1,98.676,670.029Zm926.864-11.888a.986.986,0,0,1-.272-.038,1,1,0,0,1-.692-1.233c1.072-3.818,2.116-7.725,3.1-11.611a1,1,0,0,1,1.939.492c-.991,3.9-2.039,7.826-3.116,11.66A1,1,0,0,1,1025.54,658.141Zm-933.391-11.3a1,1,0,0,1-.968-.754c-.989-3.883-1.941-7.83-2.831-11.732a1,1,0,0,1,1.95-.444c.886,3.885,1.834,7.816,2.819,11.683a1,1,0,0,1-.97,1.247Zm939.318-12.05a1,1,0,0,1-.977-1.221c.887-3.906,1.733-7.86,2.516-11.753a1,1,0,0,1,1.961.394c-.786,3.909-1.636,7.88-2.526,11.8A1,1,0,0,1,1031.467,634.795ZM86.8,623.362a1,1,0,0,1-.979-.8c-.79-3.918-1.544-7.907-2.238-11.859a1,1,0,1,1,1.969-.347c.692,3.936,1.442,7.909,2.23,11.81a1,1,0,0,1-.783,1.178A.967.967,0,0,1,86.8,623.362Zm949.418-12.18a1.02,1.02,0,0,1-.173-.015,1,1,0,0,1-.814-1.157c.686-3.92,1.333-7.911,1.924-11.864a1,1,0,0,1,1.979.3c-.594,3.969-1.243,7.977-1.932,11.912A1,1,0,0,1,1036.213,611.182Zm-953.59-11.54a1,1,0,0,1-.987-.852c-.595-3.964-1.148-7.986-1.643-11.956a1,1,0,0,1,1.984-.248c.494,3.953,1.044,7.959,1.637,11.907a1,1,0,0,1-.841,1.137A.948.948,0,0,1,82.623,599.642Zm957.148-12.28a1.046,1.046,0,0,1-.124-.008,1,1,0,0,1-.869-1.115c.489-3.949.938-7.967,1.33-11.945a1,1,0,1,1,1.991.2c-.395,3.994-.844,8.029-1.336,11.994A1,1,0,0,1,1039.771,587.362ZM79.642,575.743a1,1,0,0,1-.994-.9c-.4-3.974-.748-8.019-1.046-12.023a1,1,0,0,1,1.994-.148c.3,3.987.648,8.015,1.043,11.973a1,1,0,0,1-.9,1.094A.865.865,0,0,1,79.642,575.743Zm962.5-12.349-.074,0a1,1,0,0,1-.924-1.071c.293-3.967.541-8,.737-12a.987.987,0,0,1,1.048-.95,1,1,0,0,1,.95,1.048c-.2,4.01-.446,8.062-.74,12.045A1,1,0,0,1,1042.141,563.394ZM77.85,551.725a1,1,0,0,1-1-.95c-.2-3.989-.351-8.047-.452-12.061a1,1,0,0,1,2-.051c.1,4,.252,8.04.45,12.012a1,1,0,0,1-.949,1.049Zm965.471-12.386h-.024a1,1,0,0,1-.976-1.025c.1-3.975.147-8.018.147-12.017v-.692a1,1,0,0,1,2,0v.692c0,4.015-.05,8.075-.147,12.066A1,1,0,0,1,1043.321,539.339ZM77.245,527.645a1,1,0,0,1-1-1v-.353c0-3.888.047-7.83.139-11.713a.971.971,0,0,1,1.024-.976,1,1,0,0,1,.975,1.024c-.092,3.867-.138,7.793-.138,11.67v.348A1,1,0,0,1,77.245,527.645ZM1043.3,514.563a1,1,0,0,1-1-.974c-.1-3.985-.256-8.026-.458-12.012a1,1,0,0,1,2-.1c.2,4,.356,8.06.46,12.061a1,1,0,0,1-.975,1.025Zm-965.485-11h-.049a1,1,0,0,1-.95-1.048c.194-4,.44-8.056.732-12.045a1,1,0,1,1,2,.146c-.291,3.973-.537,8.009-.729,12A1,1,0,0,1,77.818,503.568Zm964.269-13.061a1,1,0,0,1-1-.925c-.3-3.96-.652-7.988-1.051-11.972a1,1,0,1,1,1.99-.2c.4,4,.756,8.044,1.055,12.022a1,1,0,0,1-.922,1.071C1042.138,490.506,1042.112,490.507,1042.087,490.507ZM79.576,479.548c-.033,0-.066,0-.1,0a1,1,0,0,1-.9-1.093c.391-3.982.838-8.017,1.328-12a1,1,0,0,1,1.985.245c-.488,3.961-.933,7.98-1.322,11.945A1,1,0,0,1,79.576,479.548Zm960.107-13a1,1,0,0,1-.992-.875c-.493-3.94-1.047-7.945-1.644-11.905a1,1,0,1,1,1.978-.3c.6,3.977,1.156,8,1.651,11.955a1,1,0,0,1-.868,1.117A1.059,1.059,0,0,1,1039.683,466.543Zm-957.16-10.9a1.062,1.062,0,0,1-.148-.01,1,1,0,0,1-.842-1.136c.589-3.964,1.236-7.973,1.923-11.915a1,1,0,1,1,1.971.344c-.684,3.925-1.329,7.918-1.916,11.864A1,1,0,0,1,82.523,455.643Zm953.568-12.915a1,1,0,0,1-.984-.826c-.69-3.909-1.443-7.883-2.238-11.808a1,1,0,0,1,1.961-.4c.8,3.942,1.554,7.931,2.246,11.858a1,1,0,0,1-.81,1.158A.955.955,0,0,1,1036.091,442.728ZM86.66,431.917a.964.964,0,0,1-.2-.02,1,1,0,0,1-.784-1.176c.785-3.922,1.632-7.893,2.518-11.8a1,1,0,0,1,1.95.442c-.881,3.9-1.725,7.849-2.507,11.754A1,1,0,0,1,86.66,431.917Zm944.649-12.794a1,1,0,0,1-.973-.777c-.888-3.881-1.838-7.811-2.826-11.682a1,1,0,0,1,1.937-.5c.992,3.888,1.947,7.834,2.838,11.731a1,1,0,0,1-.976,1.223Zm-939.331-10.7a.985.985,0,0,1-.245-.031,1,1,0,0,1-.724-1.214c.982-3.885,2.028-7.808,3.107-11.663a1,1,0,1,1,1.925.54c-1.074,3.838-2.115,7.745-3.094,11.613A1,1,0,0,1,91.978,408.427Zm933.373-12.641a1,1,0,0,1-.961-.728c-1.078-3.82-2.225-7.7-3.41-11.525a1,1,0,0,1,1.911-.592c1.19,3.844,2.341,7.738,3.424,11.574a1,1,0,0,1-.964,1.271ZM98.471,385.233a1,1,0,0,1-.956-1.294c1.183-3.852,2.429-7.732,3.7-11.534a1,1,0,1,1,1.9.635c-1.269,3.787-2.51,7.651-3.688,11.486A1,1,0,0,1,98.471,385.233Zm919.757-12.454a1,1,0,0,1-.947-.681c-1.272-3.772-2.612-7.587-3.984-11.339a1,1,0,1,1,1.879-.686c1.377,3.767,2.723,7.6,4,11.386a1,1,0,0,1-.948,1.32ZM106.149,362.314a1,1,0,0,1-.94-1.342c1.374-3.78,2.813-7.591,4.278-11.327a1,1,0,0,1,1.862.731c-1.459,3.72-2.892,7.515-4.26,11.279A1,1,0,0,1,106.149,362.314Zm903.81-12.157a1,1,0,0,1-.931-.634c-1.459-3.7-2.983-7.429-4.531-11.084a1,1,0,0,1,1.842-.78c1.554,3.67,3.086,7.415,4.551,11.131a1,1,0,0,1-.564,1.3A1.012,1.012,0,0,1,1009.959,350.157ZM114.968,339.823a.983.983,0,0,1-.388-.079,1,1,0,0,1-.533-1.31c1.558-3.7,3.186-7.43,4.839-11.091a1,1,0,0,1,1.823.822c-1.646,3.647-3.267,7.363-4.819,11.046A1,1,0,0,1,114.968,339.823ZM1000.6,328.055a1,1,0,0,1-.912-.588c-1.637-3.614-3.348-7.264-5.083-10.85a1,1,0,1,1,1.8-.871c1.741,3.6,3.459,7.267,5.105,10.9a1,1,0,0,1-.911,1.413ZM124.9,317.814a.985.985,0,0,1-.433-.1A1,1,0,0,1,124,316.38c1.742-3.613,3.554-7.256,5.388-10.829a1,1,0,0,1,1.779.913c-1.826,3.558-3.631,7.187-5.365,10.784A1,1,0,0,1,124.9,317.814Zm865.24-11.378a1,1,0,0,1-.891-.543c-1.81-3.517-3.7-7.079-5.619-10.589a1,1,0,0,1,1.754-.96c1.927,3.525,3.826,7.1,5.644,10.634a1,1,0,0,1-.888,1.458Zm-854.22-10.094a1,1,0,0,1-.877-1.479c1.919-3.52,3.911-7.067,5.92-10.541a1,1,0,1,1,1.732,1c-2,3.46-3.985,6.992-5.9,10.5A1,1,0,0,1,135.921,296.342Zm842.69-10.988a1,1,0,0,1-.866-.5c-1.985-3.426-4.052-6.892-6.144-10.3a1,1,0,0,1,1.706-1.046c2.1,3.424,4.175,6.9,6.168,10.344a1,1,0,0,1-.864,1.5ZM148,275.456a1,1,0,0,1-.852-1.522c2.092-3.418,4.258-6.86,6.437-10.229a1,1,0,0,1,1.68,1.086c-2.171,3.355-4.328,6.783-6.411,10.187A1,1,0,0,1,148,275.456Zm818.045-10.593a1,1,0,0,1-.84-.456c-2.171-3.349-4.409-6.709-6.651-9.988a1,1,0,1,1,1.65-1.129c2.252,3.292,4.5,6.666,6.679,10.029a1,1,0,0,1-.838,1.544ZM161.1,255.206a1,1,0,0,1-.825-1.564c2.257-3.306,4.591-6.634,6.936-9.891a1,1,0,1,1,1.623,1.168c-2.335,3.244-4.66,6.558-6.908,9.851A1,1,0,0,1,161.1,255.206Zm791.368-10.193a1,1,0,0,1-.813-.415c-2.333-3.235-4.735-6.481-7.141-9.649a1,1,0,1,1,1.591-1.21c2.417,3.181,4.83,6.441,7.173,9.689a1,1,0,0,1-.81,1.585Zm-777.282-9.372a1,1,0,0,1-.8-1.6c2.426-3.2,4.922-6.407,7.417-9.531a1,1,0,0,1,1.563,1.248c-2.485,3.111-4.97,6.305-7.387,9.492A1,1,0,0,1,175.182,235.641Zm762.728-9.787a1,1,0,0,1-.782-.376c-2.479-3.1-5.04-6.225-7.614-9.286a1,1,0,0,1,1.531-1.287c2.585,3.074,5.157,6.211,7.645,9.325a1,1,0,0,1-.78,1.624Zm-747.693-9.047a1,1,0,0,1-.765-1.644c2.578-3.071,5.229-6.149,7.877-9.148a1,1,0,1,1,1.5,1.324c-2.638,2.987-5.278,6.052-7.846,9.111A1,1,0,0,1,190.217,216.807Zm732.2-9.373a1,1,0,0,1-.749-.338c-2.634-2.979-5.349-5.974-8.069-8.9a1,1,0,0,1,1.465-1.362c2.732,2.939,5.457,5.946,8.1,8.938a1,1,0,0,1-.749,1.663Zm-716.257-8.688a1,1,0,0,1-.733-1.68c2.714-2.925,5.513-5.867,8.319-8.745a1,1,0,0,1,1.432,1.4c-2.794,2.865-5.582,5.8-8.285,8.708A1,1,0,0,1,206.163,198.746ZM906.029,189.8a1,1,0,0,1-.716-.3c-2.788-2.856-5.648-5.714-8.5-8.494a1,1,0,0,1,1.4-1.432c2.864,2.791,5.736,5.661,8.536,8.528a1,1,0,0,1-.716,1.7ZM222.978,181.5a1,1,0,0,1-.7-1.716c2.868-2.8,5.808-5.6,8.738-8.319a1,1,0,1,1,1.362,1.466c-2.919,2.709-5.847,5.5-8.7,8.285A1,1,0,0,1,222.978,181.5Zm665.8-8.517a1,1,0,0,1-.68-.267c-2.927-2.716-5.926-5.429-8.914-8.064a1,1,0,0,1,1.323-1.5c3,2.647,6.012,5.371,8.951,8.1a1,1,0,0,1-.68,1.733Zm-648.161-7.866a1,1,0,0,1-.662-1.75c3-2.649,6.073-5.3,9.137-7.873a1,1,0,1,1,1.287,1.531c-3.052,2.564-6.113,5.2-9.1,7.841A1,1,0,0,1,240.621,165.121Zm630.094-8.073a.992.992,0,0,1-.642-.234c-3.051-2.56-6.182-5.122-9.307-7.615a1,1,0,1,1,1.248-1.563c3.137,2.5,6.281,5.075,9.344,7.646a1,1,0,0,1-.643,1.766Zm-611.667-7.41a1,1,0,0,1-.625-1.782c3.122-2.493,6.322-4.985,9.513-7.408a1,1,0,0,1,1.209,1.593c-3.177,2.413-6.365,4.9-9.474,7.378A1,1,0,0,1,259.048,149.638Zm592.826-7.619a.992.992,0,0,1-.6-.2c-3.181-2.411-6.437-4.816-9.675-7.146a1,1,0,1,1,1.168-1.623c3.252,2.34,6.521,4.754,9.716,7.176a1,1,0,0,1-.605,1.8Zm-573.662-6.928a1,1,0,0,1-.585-1.811c3.242-2.337,6.56-4.666,9.864-6.925a1,1,0,0,1,1.129,1.652c-3.29,2.249-6.6,4.569-9.824,6.9A1,1,0,0,1,278.212,135.091Zm554.092-7.15a.991.991,0,0,1-.563-.174c-3.289-2.245-6.661-4.485-10.023-6.658a1,1,0,0,1,1.086-1.68c3.376,2.183,6.761,4.432,10.064,6.686a1,1,0,0,1-.564,1.826Zm-534.238-6.422a1,1,0,0,1-.544-1.839c3.352-2.171,6.781-4.332,10.192-6.423a1,1,0,0,1,1.045,1.7c-3.4,2.083-6.812,4.235-10.15,6.4A.994.994,0,0,1,298.066,121.519Zm513.985-6.669a1,1,0,0,1-.521-.147c-3.416-2.09-6.9-4.16-10.347-6.153a1,1,0,1,1,1-1.731c3.464,2,6.96,4.079,10.39,6.178a1,1,0,0,1-.522,1.853Zm-493.49-5.894a1,1,0,0,1-.5-1.865c3.447-2,6.978-3.984,10.494-5.906a1,1,0,0,1,.959,1.755c-3.5,1.914-7.018,3.893-10.45,5.881A.993.993,0,0,1,318.561,108.956Zm472.6-6.175a.99.99,0,0,1-.477-.122c-3.5-1.908-7.083-3.8-10.646-5.629a1,1,0,1,1,.912-1.78c3.579,1.835,7.176,3.737,10.691,5.653a1,1,0,0,1-.48,1.878ZM339.647,97.434a1,1,0,0,1-.458-1.889c3.543-1.823,7.166-3.631,10.77-5.373a1,1,0,1,1,.87,1.8c-3.588,1.735-7.2,3.535-10.725,5.35A1,1,0,0,1,339.647,97.434Zm430.036-5.666a1,1,0,0,1-.432-.1c-3.594-1.731-7.268-3.443-10.92-5.09a1,1,0,0,1,.822-1.824c3.668,1.654,7.357,3.374,10.965,5.112a1,1,0,0,1-.435,1.9ZM361.27,86.984a1,1,0,0,1-.413-1.911c3.624-1.641,7.331-3.264,11.019-4.826a1,1,0,0,1,.779,1.842c-3.672,1.554-7.364,3.172-10.973,4.806A1.006,1.006,0,0,1,361.27,86.984Zm386.4-5.142a1,1,0,0,1-.387-.078c-3.684-1.551-7.44-3.078-11.167-4.538a1,1,0,0,1,.73-1.862c3.742,1.466,7.514,3,11.212,4.556a1,1,0,0,1-.388,1.922Zm-364.3-4.21a1,1,0,0,1-.367-1.931c3.729-1.469,7.525-2.91,11.284-4.283a1,1,0,0,1,.687,1.879c-3.744,1.367-7.525,2.8-11.237,4.264A.993.993,0,0,1,383.375,77.632Zm341.8-4.6a.99.99,0,0,1-.341-.061c-3.758-1.364-7.589-2.7-11.387-3.971a1,1,0,0,1,.635-1.9c3.813,1.277,7.66,2.619,11.433,3.988a1,1,0,0,1-.34,1.941ZM406,69.37a1,1,0,0,1-.319-1.948c3.8-1.279,7.659-2.528,11.485-3.711a1,1,0,0,1,.591,1.911c-3.81,1.178-7.658,2.421-11.437,3.695A.994.994,0,0,1,406,69.37Zm296.258-4.009a.992.992,0,0,1-.293-.044c-3.808-1.169-7.688-2.306-11.534-3.382a1,1,0,1,1,.539-1.925c3.861,1.079,7.758,2.221,11.581,3.4a1,1,0,0,1-.293,1.956ZM429.01,62.255a1,1,0,0,1-.271-1.963c3.846-1.084,7.768-2.136,11.656-3.128a1,1,0,0,1,.494,1.938c-3.872.988-7.777,2.036-11.607,3.115A.986.986,0,0,1,429.01,62.255Zm250.05-3.378a1.041,1.041,0,0,1-.246-.03c-3.861-.976-7.794-1.918-11.687-2.8a1,1,0,0,1,.441-1.951c3.909.884,7.859,1.829,11.737,2.81a1,1,0,0,1-.245,1.969ZM452.348,56.305a1,1,0,0,1-.222-1.975c3.9-.89,7.865-1.744,11.8-2.54a1,1,0,0,1,.4,1.96c-3.917.793-7.87,1.643-11.75,2.53A1.01,1.01,0,0,1,452.348,56.305Zm203.22-2.739a1.021,1.021,0,0,1-.2-.02c-3.906-.781-7.881-1.524-11.813-2.208a1,1,0,1,1,.343-1.97c3.949.687,7.94,1.433,11.863,2.217a1,1,0,0,1-.2,1.981ZM475.954,51.533a1,1,0,0,1-.172-1.985c3.948-.7,7.955-1.35,11.91-1.946a1,1,0,1,1,.3,1.978c-3.939.593-7.929,1.245-11.861,1.937A.95.95,0,0,1,475.954,51.533Zm155.887-2.1a1.062,1.062,0,0,1-.148-.01c-3.941-.585-7.948-1.128-11.91-1.615a1,1,0,0,1,.244-1.985c3.979.489,8,1.034,11.959,1.621a1,1,0,0,1-.145,1.989ZM499.77,47.948a1,1,0,0,1-.123-1.993c3.963-.495,8-.949,11.992-1.349a1,1,0,0,1,.2,1.991c-3.978.4-8,.849-11.943,1.343A1.063,1.063,0,0,1,499.77,47.948ZM607.935,46.5c-.032,0-.065,0-.1,0-3.971-.389-8-.732-11.974-1.021a1,1,0,0,1-.925-1.07,1.011,1.011,0,0,1,1.07-.925c3.992.29,8.037.635,12.024,1.025a1,1,0,0,1-.1,1.995Zm-84.2-.946a1,1,0,0,1-.074-2c4-.3,8.048-.553,12.044-.754a1,1,0,0,1,.1,2c-3.98.2-8.017.452-12,.75Zm60.178-.8h-.049c-3.985-.191-8.026-.336-12.011-.429a1,1,0,0,1-.976-1.023,1.024,1.024,0,0,1,1.023-.976c4,.093,8.058.238,12.06.43a1,1,0,0,1-.047,2Zm-36.122-.4a1,1,0,0,1-.025-2c4-.1,8.065-.157,12.067-.161h0a1,1,0,0,1,0,2c-3.986,0-8.029.058-12.018.16Z" fill="#292a2e"></path>
    <circle cx="560.356" cy="526.297" r="283.52" fill="#006D77" opacity="0.1"></circle>
    <g>
      <circle cx="982.57" cy="300.429" r="123.628" fill="#fff"></circle>
      <circle cx="982.57" cy="300.429" r="123.628" fill="#006D77" opacity="0.1"></circle>
      <g>
        <rect x="903.796" y="238.867" width="173.257" height="123.125" rx="13.896" transform="translate(1919.325 756.876) rotate(-170.706)" fill="#262626"></rect>
        <g>
          <rect x="925.479" y="247.362" width="29.533" height="21.948" rx="5.685" transform="translate(54.068 -148.466) rotate(9.294)" fill="#fff"></rect>
          <path d="M956.2,252.294l-.832,5.083-9.874-1.616-1.332-1.854.964-5.893,9.065,1.484A2.434,2.434,0,0,1,956.2,252.294Z" fill="#83C5BE"></path>
          <path d="M954.271,264.066l-.832,5.083a2.434,2.434,0,0,1-2.8,2.009l-9.065-1.483.991-6.053,1.827-1.172Z" fill="#83C5BE"></path>
          <path d="M938.753,246.972l-.965,5.893-1.694,1.358-9.874-1.616.832-5.083a2.434,2.434,0,0,1,2.795-2.01Z" fill="#83C5BE"></path>
          <path d="M936.2,262.58l-.99,6.052-8.906-1.457a2.436,2.436,0,0,1-2.009-2.8l.832-5.083L935,260.912Z" fill="#83C5BE"></path>
        </g>
        <path d="M1056.633,348.874a12.911,12.911,0,0,1-25.483-4.171,12.788,12.788,0,0,1,6.394-9.092,12.844,12.844,0,0,1,19.089,13.263Z" fill="#fff"></path>
        <path d="M1029.534,354.578a12.911,12.911,0,1,1,3.232-19.749c-3.257,1.92-5.112,5.214-5.764,9.195S1027.033,351.879,1029.534,354.578Z" fill="#83C5BE"></path>
        <rect x="920.456" y="286.692" width="30.496" height="4.75" rx="2.375" transform="translate(58.971 -147.329) rotate(9.294)" fill="#fff"></rect>
        <rect x="957.875" y="292.816" width="30.496" height="4.75" rx="2.375" transform="translate(60.452 -153.292) rotate(9.294)" fill="#fff"></rect>
        <rect x="995.295" y="298.94" width="30.496" height="4.75" rx="2.375" transform="translate(61.932 -159.255) rotate(9.294)" fill="#fff"></rect>
        <rect x="1032.715" y="305.064" width="30.496" height="4.75" rx="2.375" transform="translate(63.412 -165.219) rotate(9.294)" fill="#fff"></rect>
      </g>
    </g>
    <g>
      <circle cx="127.111" cy="708.666" r="127.111" fill="#fff"></circle>
      <circle cx="127.111" cy="708.666" r="127.111" fill="#006D77" opacity="0.1"></circle>
      <g>
        <path d="M183.167,697.71H51.948a4.42,4.42,0,0,0-4.42,4.42l8.6,95.4a4.42,4.42,0,0,0,4.42,4.42H183.167a4.42,4.42,0,0,0,4.42-4.42v-95.4A4.42,4.42,0,0,0,183.167,697.71Z" fill="#292a2e"></path>
        <g id="file">
          <path d="M193.186,649.77l-5.512,124.408a3.171,3.171,0,0,1-3.307,3.026L71.1,772.185a3.17,3.17,0,0,1-3.026-3.306l6.542-147.636a3.168,3.168,0,0,1,3.306-3.026l90.315,4-1.028,23.191a3.207,3.207,0,0,0,3.062,3.346Z" fill="#558fff"></path>
          <path d="M193.186,649.77l-5.512,124.408a3.171,3.171,0,0,1-3.307,3.026L71.1,772.185a3.17,3.17,0,0,1-3.026-3.306l6.542-147.636a3.168,3.168,0,0,1,3.306-3.026l90.315,4L167.187,645.9a2.719,2.719,0,0,0,2.6,2.838Z" fill="#fff" opacity="0.4"></path>
          <g>
            <path d="M88.466,659.18l89.18,3.951" fill="#fff"></path>
            <path d="M177.647,663.631h-.023l-89.18-3.951a.5.5,0,0,1,.044-1l89.18,3.951a.5.5,0,0,1-.021,1Z" fill="#fafafa"></path>
          </g>
          <g>
            <path d="M87.857,672.927l89.18,3.952" fill="#fff"></path>
            <path d="M177.038,677.379h-.022l-89.181-3.951a.5.5,0,0,1-.478-.522.52.52,0,0,1,.522-.477l89.18,3.951a.5.5,0,0,1-.021,1Z" fill="#fafafa"></path>
          </g>
          <g>
            <path d="M87.248,686.674l89.18,3.952" fill="#fff"></path>
            <path d="M176.429,691.126h-.023l-89.18-3.951a.5.5,0,0,1-.478-.522.512.512,0,0,1,.522-.477l89.18,3.951a.5.5,0,0,1-.021,1Z" fill="#fafafa"></path>
          </g>
          <g>
            <path d="M86.639,700.421l89.18,3.952" fill="#fff"></path>
            <path d="M175.82,704.873H175.8l-89.18-3.951a.5.5,0,0,1-.477-.522.512.512,0,0,1,.521-.477l89.18,3.951a.5.5,0,0,1-.021,1Z" fill="#fafafa"></path>
          </g>
          <g>
            <path d="M86.03,714.169l89.18,3.951" fill="#fff"></path>
            <path d="M175.21,718.62h-.022l-89.18-3.952a.5.5,0,0,1-.478-.521.518.518,0,0,1,.522-.478l89.18,3.952a.5.5,0,0,1-.022,1Z" fill="#fafafa"></path>
          </g>
          <g>
            <path d="M85.421,727.916l40.036,1.774" fill="#fff"></path>
            <path d="M125.458,730.19h-.023L85.4,728.415a.5.5,0,0,1-.478-.521.508.508,0,0,1,.522-.478l40.036,1.774a.5.5,0,0,1-.021,1Z" fill="#fafafa"></path>
          </g>
          <path d="M193.186,649.77l-22.775-1.009a3.349,3.349,0,0,1-3.2-3.493l1.022-23.05Z" fill="#006D77" opacity="0.7"></path>
        </g>
        <g id="file-2" data-name="file">
          <path d="M175.323,657.55l9.907,124.135a3.169,3.169,0,0,1-2.906,3.412L69.3,794.117a3.169,3.169,0,0,1-3.412-2.907L54.135,643.9a3.168,3.168,0,0,1,2.907-3.411l90.116-7.193,1.847,23.14a3.207,3.207,0,0,0,3.452,2.941Z" fill="#558fff"></path>
          <path d="M175.323,657.55l9.907,124.135a3.169,3.169,0,0,1-2.906,3.412L69.3,794.117a3.169,3.169,0,0,1-3.412-2.907L54.135,643.9a3.168,3.168,0,0,1,2.907-3.411l90.116-7.193,1.848,23.148a3.2,3.2,0,0,0,3.443,2.934Z" fill="#fff" opacity="0.73"></path>
          <g>
            <path d="M72.569,679.832l88.985-7.1" fill="#fff"></path>
            <path d="M72.569,680.332a.5.5,0,0,1-.039-1l88.985-7.1a.51.51,0,0,1,.538.459.5.5,0,0,1-.459.538l-88.985,7.1Z" fill="#fafafa"></path>
          </g>
          <g>
            <path d="M73.664,693.549l88.985-7.1" fill="#fff"></path>
            <path d="M73.663,694.049a.5.5,0,0,1-.039-1l88.985-7.1a.506.506,0,0,1,.538.459.5.5,0,0,1-.459.538l-88.984,7.1Z" fill="#fafafa"></path>
          </g>
          <g>
            <path d="M74.759,707.266l88.985-7.1" fill="#fff"></path>
            <path d="M74.758,707.767a.5.5,0,0,1-.039-1l88.985-7.1a.5.5,0,0,1,.079,1l-88.985,7.1Z" fill="#fafafa"></path>
          </g>
          <g>
            <path d="M75.854,720.983l88.984-7.1" fill="#fff"></path>
            <path d="M75.853,721.483a.5.5,0,0,1-.039-1l88.985-7.1a.5.5,0,0,1,.079,1l-88.985,7.1Z" fill="#fafafa"></path>
          </g>
          <g>
            <path d="M76.948,734.7l88.985-7.1" fill="#fff"></path>
            <path d="M76.948,735.2a.5.5,0,0,1-.039-1l88.985-7.1a.5.5,0,1,1,.079,1l-88.985,7.1Z" fill="#fafafa"></path>
          </g>
          <g>
            <path d="M78.043,748.417l39.949-3.188" fill="#fff"></path>
            <path d="M78.043,748.917a.5.5,0,0,1-.039-1l39.949-3.189a.5.5,0,1,1,.079,1l-39.949,3.189Z" fill="#fafafa"></path>
          </g>
          <path d="M175.323,657.55,152.6,659.364a3.348,3.348,0,0,1-3.6-3.071l-1.836-23Z" fill="#fff" opacity="0.3"></path>
        </g>
        <path d="M162.448,712.114v3.3a4.42,4.42,0,0,1-4.42,4.42H69.091A4.421,4.421,0,0,0,64.7,723.74l-8.545,73.278a4.42,4.42,0,0,0,4.39,4.932H192.033a4.42,4.42,0,0,0,4.4-3.974l8.678-85.416a4.419,4.419,0,0,0-4.4-4.866H166.868A4.419,4.419,0,0,0,162.448,712.114Z" fill="#83C5BE"></path>
      </g>
    </g>
    <g>
      <circle cx="851.056" cy="876.955" r="139.368" fill="#fff"></circle>
      <circle cx="851.056" cy="876.955" r="139.368" fill="#006D77" opacity="0.1"></circle>
      <g>
        <path d="M765.493,838.572a1.732,1.732,0,0,1-1.732-1.731V804.782a16.535,16.535,0,0,1,16.516-16.516h32.07a1.732,1.732,0,0,1,0,3.463h-32.07a13.068,13.068,0,0,0-13.053,13.053v32.059A1.731,1.731,0,0,1,765.493,838.572Z" fill="#292a2e"></path>
        <path d="M812.347,970.247h-32.07a16.535,16.535,0,0,1-16.516-16.516V921.673a1.732,1.732,0,1,1,3.463,0v32.058a13.068,13.068,0,0,0,13.053,13.053h32.07a1.732,1.732,0,0,1,0,3.463Z" fill="#292a2e"></path>
        <path d="M944.022,838.572a1.732,1.732,0,0,1-1.732-1.731V804.782a13.068,13.068,0,0,0-13.052-13.053h-32.07a1.732,1.732,0,1,1,0-3.463h32.07a16.534,16.534,0,0,1,16.515,16.516v32.059A1.731,1.731,0,0,1,944.022,838.572Z" fill="#292a2e"></path>
        <path d="M929.238,970.247h-32.07a1.732,1.732,0,1,1,0-3.463h32.07a13.068,13.068,0,0,0,13.052-13.053V921.673a1.732,1.732,0,1,1,3.463,0v32.058A16.534,16.534,0,0,1,929.238,970.247Z" fill="#292a2e"></path>
        <g>
          <path d="M838.1,938.759a1.732,1.732,0,0,1-.833-3.25c18.991-10.41,10.918-32.117,10.565-33.036a1.732,1.732,0,0,1,3.231-1.247c.1.253,9.536,25.442-12.132,37.32A1.719,1.719,0,0,1,838.1,938.759Z" fill="#83C5BE"></path>
          <path d="M847.115,947.731a1.732,1.732,0,0,1-.794-3.271c.964-.5,23.206-12.446,15.956-43.787-.869-3.758-3.287-8.5-7.463-10.524-3.076-1.493-6.7-1.281-10.769.631-5.409,2.543-4.963,8.933-4.447,16.333.625,8.958,1.333,19.111-9.774,22.814-6.82,2.273-11.008.2-13.32-1.942-7.856-7.273-6.621-25.956-3.178-39.746a36.37,36.37,0,0,1,38.553-27.176c28.991,2.323,41.005,19.113,40.171,56.142a1.7,1.7,0,0,1-1.771,1.692,1.731,1.731,0,0,1-1.692-1.77c.793-35.2-9.922-50.444-36.985-52.612a32.944,32.944,0,0,0-34.916,24.562c-4.169,16.691-3.3,31.306,2.171,36.366,2.4,2.222,5.627,2.614,9.871,1.2,8.561-2.855,8.03-10.47,7.416-19.287-.555-7.944-1.128-16.157,6.427-19.709,5.063-2.379,9.689-2.586,13.755-.612,5.275,2.561,8.276,8.322,9.324,12.859,7.876,34.046-17.487,47.514-17.744,47.647A1.745,1.745,0,0,1,847.115,947.731Z" fill="#83C5BE"></path>
          <path d="M873.424,934.948a1.733,1.733,0,0,1-1.657-2.237c6.633-21.771,4.965-40.3-4.46-49.571-5.765-5.669-13.937-7.178-23.015-4.246-22.838,7.376-17.4,38.811-17.339,39.128a1.732,1.732,0,0,1-3.407.623c-.063-.346-6.051-34.736,19.681-43.046,10.368-3.348,19.78-1.546,26.508,5.072,10.362,10.19,12.36,30.021,5.344,53.049A1.731,1.731,0,0,1,873.424,934.948Z" fill="#83C5BE"></path>
          <path d="M891.788,871.93a1.73,1.73,0,0,1-1.444-.775c-8.118-12.237-17.015-13.824-29.328-16.02-4.3-.767-9.174-1.637-14.5-3.054-17.355-4.618-30.224-18.362-30.763-18.946a1.731,1.731,0,0,1,2.541-2.352c.125.135,12.749,13.6,29.112,17.951,5.186,1.381,9.985,2.236,14.219,2.992,12.663,2.259,22.667,4.043,31.605,17.515a1.732,1.732,0,0,1-1.442,2.689Z" fill="#83C5BE"></path>
          <path d="M810.49,869.908a1.732,1.732,0,0,1-.438-3.407c4.432-1.165,15.8-5.448,15.18-11.195-.762-7.06-13.261-8.942-13.387-8.96a1.731,1.731,0,0,1,.489-3.428c.625.088,15.291,2.285,16.34,12.016,1.048,9.707-15.818,14.412-17.744,14.917A1.754,1.754,0,0,1,810.49,869.908Z" fill="#83C5BE"></path>
          <path d="M817.146,859.272c-.054,0-.11,0-.164-.007l-6.043-.567a1.732,1.732,0,1,1,.322-3.448l6.044.567a1.731,1.731,0,0,1-.159,3.455Z" fill="#83C5BE"></path>
          <path d="M895.32,856.07a1.728,1.728,0,0,1-1.341-.635c-6.612-8.086-20.409-10.436-31.5-12.325q-1.611-.274-3.145-.542a55.664,55.664,0,0,1-20.574-7.767,1.731,1.731,0,0,1,1.971-2.846,53.279,53.279,0,0,0,19.2,7.2c1.014.179,2.059.356,3.125.538,11.656,1.986,26.162,4.457,33.594,13.546a1.731,1.731,0,0,1-1.339,2.828Z" fill="#83C5BE"></path>
          <path d="M888.78,838.28a1.723,1.723,0,0,1-1.048-.354c-4.074-3.1-8.728-3.621-14.623-4.28a92.3,92.3,0,0,1-13.023-2.155,1.731,1.731,0,1,1,.85-3.357A89.312,89.312,0,0,0,873.5,830.2c6.171.69,11.5,1.286,16.334,4.966a1.732,1.732,0,0,1-1.049,3.11Z" fill="#83C5BE"></path>
          <path d="M834.526,831.086a1.723,1.723,0,0,1-.777-.185c-.312-.157-7.673-3.919-9.86-9.871a1.732,1.732,0,1,1,3.251-1.194c1.711,4.66,8.1,7.94,8.168,7.973a1.732,1.732,0,0,1-.782,3.277Z" fill="#83C5BE"></path>
          <path d="M854.383,828.944a1.759,1.759,0,0,1-.344-.034c-8.755-1.76-19.427-12.018-19.877-12.454a1.732,1.732,0,0,1,2.409-2.488c.1.1,10.392,9.988,18.151,11.546a1.732,1.732,0,0,1-.339,3.43Z" fill="#83C5BE"></path>
          <path d="M877.8,823.972c-17.98,0-26.7-8.968-27.073-9.361a1.732,1.732,0,0,1,2.51-2.387c.129.135,8.709,8.8,26.144,8.26a1.732,1.732,0,0,1,.105,3.462C878.917,823.963,878.353,823.972,877.8,823.972Z" fill="#83C5BE"></path>
        </g>
      </g>
    </g>
    <g>
      <g>
        <path d="M705.4,391.8a240.414,240.414,0,0,1-145.041-48.382A240.406,240.406,0,0,1,415.316,391.8c-4.3,0-8.591-.106-12.834-.343v90.967c.053,81.77,32.6,157.11,104.038,196.875l53.836,29.883L614.193,679.3c71.44-39.765,103.984-115.105,104.037-196.875V391.454C713.988,391.691,709.692,391.8,705.4,391.8Z" fill="#fff"></path>
        <path d="M560.356,710.894l-54.565-30.287c-34.612-19.266-61.326-47.3-79.4-83.324-16.595-33.075-25.38-72.793-25.408-114.861V389.868l1.584.088c4.039.226,8.329.341,12.75.341a237.842,237.842,0,0,0,144.138-48.081l.9-.678.9.678A237.849,237.849,0,0,0,705.4,390.3c4.422,0,8.711-.115,12.749-.341l1.584-.088v92.553c-.027,42.07-8.812,81.788-25.407,114.862-18.075,36.024-44.789,64.058-79.4,83.323ZM403.982,393.034v89.387c.057,87.785,37.7,159.066,103.267,195.564l53.107,29.478,53.11-29.479c65.568-36.5,103.208-107.778,103.264-195.564V393.034c-3.624.174-7.428.263-11.333.263a240.8,240.8,0,0,1-145.041-48.008A240.8,240.8,0,0,1,415.316,393.3C411.412,393.3,407.608,393.208,403.982,393.034Z" fill="#292a2e"></path>
      </g>
      <g id="lock">
        <g>
          <path d="M598.326,461.447v35.21a5.31,5.31,0,0,1-10.62,0v-35.21c0-13.67-12.27-24.8-27.35-24.8s-27.35,11.13-27.35,24.8v37.81a5.31,5.31,0,1,1-10.62,0v-37.81c0-19.53,17.03-35.42,37.97-35.42S598.326,441.917,598.326,461.447Z" fill="#292a2e"></path>
          <path d="M598.326,496.657a5.31,5.31,0,0,1-10.62,0v-35.21c0-13.67-12.27-24.8-27.35-24.8s-27.35,11.13-27.35,24.8v37.81a5.31,5.31,0,1,1-10.62,0v-37.81c0-19.53,17.03-35.42,37.97-35.42s37.97,15.89,37.97,35.42Z" fill="#292a2e"></path>
        </g>
        <rect x="500.015" y="492.716" width="120.683" height="114.897" rx="10.521" fill="#006D77"></rect>
        <path d="M550.437,540.873a9.93,9.93,0,0,0,5.588,8.928v15.242a4.332,4.332,0,0,0,8.663,0V549.8a9.921,9.921,0,1,0-14.251-8.928Z" fill="#262626"></path>
      </g>
    </g>
    <g>
      <circle cx="288.665" cy="127.111" r="127.111" fill="#fff"></circle>
      <circle cx="288.665" cy="127.111" r="127.111" fill="#006D77" opacity="0.1"></circle>
      <g>
        <rect id="gra6_b" x="210.616" y="152.327" width="7.586" height="37.847" rx="1.338" transform="translate(428.819 342.501) rotate(-180)" fill="#006D77" opacity="0.8"></rect>
        <rect id="gra6_b-2" data-name="gra6_b" x="310.621" y="99.347" width="7.586" height="90.827" rx="1.338" transform="translate(628.827 289.521) rotate(-180)" fill="#006D77" opacity="0.8"></rect>
        <rect id="gra6_b-3" data-name="gra6_b" x="343.955" y="99.347" width="7.586" height="90.827" rx="1.338" transform="translate(695.497 289.521) rotate(-180)" fill="#006D77" opacity="0.8"></rect>
        <rect id="gra6_b-4" data-name="gra6_b" x="243.951" y="122.46" width="7.586" height="67.714" rx="1.338" transform="translate(495.489 312.634) rotate(-180)" fill="#006D77" opacity="0.8"></rect>
        <rect id="gra6_b-5" data-name="gra6_b" x="277.286" y="134.977" width="7.586" height="55.197" rx="1.338" transform="translate(562.158 325.151) rotate(-180)" fill="#006D77" opacity="0.8"></rect>
        <rect id="gra6_b-6" data-name="gra6_b" x="218.203" y="83.732" width="7.586" height="106.442" rx="1.338" transform="translate(443.992 273.905) rotate(-180)" fill="#006D77" opacity="0.5"></rect>
        <rect id="gra6_b-7" data-name="gra6_b" x="351.542" y="83.732" width="7.586" height="106.442" rx="1.338" transform="translate(710.669 273.905) rotate(-180)" fill="#006D77" opacity="0.5"></rect>
        <rect id="gra6_b-8" data-name="gra6_b" x="318.207" y="122.46" width="7.586" height="67.714" rx="1.338" transform="translate(644 312.634) rotate(-180)" fill="#006D77" opacity="0.5"></rect>
        <rect id="gra6_b-9" data-name="gra6_b" x="284.872" y="154.62" width="7.586" height="35.554" rx="1.338" transform="translate(577.331 344.794) rotate(-180)" fill="#006D77" opacity="0.5"></rect>
        <rect id="gra6_b-10" data-name="gra6_b" x="251.537" y="114.528" width="7.586" height="75.645" rx="1.338" transform="translate(510.661 304.702) rotate(-180)" fill="#006D77" opacity="0.5"></rect>
        <rect id="gra6_b-11" data-name="gra6_b" x="359.128" y="114.033" width="7.586" height="76.141" rx="1.338" transform="translate(725.842 304.206) rotate(-180)" fill="#006D77" opacity="0.2"></rect>
        <rect id="gra6_b-12" data-name="gra6_b" x="325.793" y="142.413" width="7.586" height="47.761" rx="1.338" transform="translate(659.173 332.586) rotate(-180)" fill="#006D77" opacity="0.2"></rect>
        <rect id="gra6_b-13" data-name="gra6_b" x="292.458" y="121.964" width="7.586" height="68.209" rx="1.338" transform="translate(592.503 312.138) rotate(-180)" fill="#006D77" opacity="0.2"></rect>
        <rect id="gra6_b-14" data-name="gra6_b" x="259.124" y="121.964" width="7.586" height="68.209" rx="1.338" transform="translate(525.834 312.138) rotate(-180)" fill="#006D77" opacity="0.2"></rect>
        <rect id="gra6_b-15" data-name="gra6_b" x="225.789" y="88.379" width="7.586" height="101.795" rx="1.338" transform="translate(459.164 278.553) rotate(-180)" fill="#006D77" opacity="0.2"></rect>
      </g>
      <path d="M381.7,190.21H197.572a1,1,0,0,1-1-1V70.253a1,1,0,1,1,2,0V188.21H381.7a1,1,0,0,1,0,2Z" fill="#292a2e"></path>
    </g>
  </g>
</svg>